<svg width="24" height="21" viewBox="0 0 24 21" fill="none" xmlns="http://www.w3.org/2000/svg">
    <path d="M20.0613 18.5595C19.8342 18.5592 19.611 18.4999 19.4136 18.3875C19.2162 18.275 19.0515 18.1133 18.9354 17.918L18.1953 18.1201C18.4093 18.578 18.784 18.9412 19.2483 19.1409C19.7125 19.3406 20.234 19.3627 20.7135 19.2031C21.193 19.0435 21.5972 18.7134 21.8492 18.2753C22.1012 17.8373 22.1835 17.3219 22.0805 16.8271C21.8737 17.0099 21.6338 17.1512 21.3736 17.2434V17.2471C21.3732 17.5951 21.2348 17.9287 20.9888 18.1748C20.7427 18.4208 20.4091 18.5593 20.0611 18.5596L20.0613 18.5595Z" fill="white"/>
    <path d="M17.4626 18.3205L16.7373 18.5187C16.9284 19.021 17.2307 19.4735 17.6216 19.8422C18.0126 20.211 18.4819 20.4865 18.9945 20.648C19.5071 20.8095 20.0496 20.8528 20.5813 20.7747C21.113 20.6966 21.6201 20.4991 22.0646 20.197C22.5091 19.895 22.8794 19.4962 23.1478 19.0305C23.4162 18.5649 23.5756 18.0446 23.6142 17.5086C23.6527 16.9725 23.5694 16.4347 23.3705 15.9355C23.1715 15.4363 22.8621 14.9886 22.4654 14.626L22.6166 15.1034C22.7134 15.4129 22.7088 15.7453 22.6034 16.0521C22.7634 16.3913 22.8539 16.7591 22.8696 17.1338C22.8853 17.5085 22.8258 17.8826 22.6946 18.2339C22.5635 18.5853 22.3633 18.9069 22.106 19.1797C21.8486 19.4525 21.5393 19.671 21.1962 19.8224C20.853 19.9738 20.4831 20.055 20.1081 20.0612C19.7331 20.0674 19.3607 19.9985 19.0127 19.8585C18.6648 19.7186 18.3484 19.5104 18.0821 19.2462C17.8159 18.9821 17.6052 18.6673 17.4626 18.3205Z" fill="white"/>
    <path d="M3.56176 20.9971C4.33613 20.9979 5.08963 20.7461 5.70794 20.2799C6.32625 19.8137 6.77563 19.1586 6.9879 18.4139C7.20017 17.6692 7.16374 16.8755 6.88415 16.1534C6.60456 15.4313 6.09705 14.82 5.43864 14.4125L6.42001 12.5944L6.93489 12.7632C6.9839 12.9297 7.07861 13.0791 7.20826 13.1945L8.42251 14.2701C8.43001 14.2767 8.43845 14.282 8.44651 14.288L7.74807 15.3543C7.71537 15.4042 7.69505 15.4612 7.68883 15.5205C7.6826 15.5799 7.69063 15.6399 7.71226 15.6955L8.11651 16.7367V17.1908C8.1305 17.5169 8.27297 17.8241 8.51279 18.0455C8.7526 18.2668 9.07027 18.3842 9.39639 18.3721H10.3253C10.1767 18.1465 10.0816 17.89 10.047 17.6221H9.39639C9.26924 17.6336 9.14262 17.595 9.0436 17.5144C8.94458 17.4338 8.88102 17.3177 8.86651 17.1908V16.9311L10.0082 16.5248L9.98682 15.7362L8.7092 16.1911L8.4812 15.6038L9.23495 14.4526C9.24961 14.4301 9.2618 14.4061 9.27132 14.381L9.95082 14.3997L9.93039 13.6488L8.81757 13.6182L7.70532 12.6331C7.68677 12.6166 7.67167 12.5966 7.66089 12.5743C7.65011 12.552 7.64387 12.5277 7.64253 12.503C7.64118 12.4782 7.64477 12.4534 7.65307 12.43C7.66137 12.4067 7.67422 12.3852 7.69089 12.3668L8.65726 11.3024C8.78041 11.167 8.93046 11.0589 9.09779 10.9848C9.26513 10.9107 9.44608 10.8724 9.62907 10.8723H12.0576C12.2113 10.8729 12.3638 10.9011 12.5076 10.9555L11.2138 11.8761C11.0354 12.0021 10.8915 12.1709 10.7953 12.367C10.6991 12.563 10.6536 12.7801 10.6631 12.9983L10.7826 17.4205C10.7896 17.6873 10.8989 17.9411 11.088 18.1294C11.277 18.3177 11.5313 18.4261 11.7981 18.4321L11.8232 18.4323C12.0894 18.4332 12.3457 18.3315 12.5389 18.1483C12.7321 17.9651 12.8472 17.7145 12.8604 17.4486L13.0789 13.3799C14.2853 13.2083 16.4134 12.7478 17.1105 11.5906C17.1496 11.5251 17.184 11.457 17.2134 11.3868C17.487 11.3028 17.7505 11.189 17.9991 11.0474V12.1276L16.3911 13.976L15.516 13.5704C15.1605 13.6987 14.7979 13.8067 14.43 13.8936L15.8295 14.5424L15.2948 15.0359C15.1008 15.1895 14.9452 15.386 14.8402 15.61C14.7352 15.834 14.6837 16.0793 14.6897 16.3266C14.6917 16.3862 14.7078 16.4444 14.7368 16.4965C14.7658 16.5486 14.8067 16.593 14.8563 16.626C14.9059 16.6591 14.9626 16.6799 15.0218 16.6867C15.081 16.6935 15.1409 16.6861 15.1967 16.6651L20.4636 14.6791C20.5307 14.6414 20.6059 14.6206 20.6828 14.6184C20.7597 14.6163 20.836 14.6328 20.9051 14.6667L21.1868 15.5549C21.192 15.6033 21.0714 15.7799 20.8086 15.8517C18.4581 16.5198 14.9254 17.519 14.5211 17.6221H13.5958C13.5614 17.8899 13.4665 18.1464 13.3181 18.3721H14.5635C14.6325 18.3721 14.6826 18.3721 21.0101 16.5741C21.1798 16.5313 21.3394 16.4555 21.4798 16.3509C21.6201 16.2464 21.7385 16.1151 21.828 15.9648C21.8829 15.8695 21.9177 15.7641 21.9305 15.6549C21.9432 15.5457 21.9336 15.4351 21.9023 15.3297L21.6204 14.4402C21.5858 14.3354 21.5294 14.2392 21.4549 14.1577C21.3804 14.0763 21.2895 14.0115 21.1883 13.9677C21.0286 13.902 20.8572 13.8695 20.6846 13.8722C20.512 13.8749 20.3417 13.9127 20.1842 13.9833L15.7086 15.6708C15.7298 15.6501 15.7523 15.6303 15.7761 15.6113C15.7824 15.6061 15.7888 15.6006 15.7948 15.5948L16.7537 14.7102C16.7799 14.6853 16.8023 14.6568 16.8203 14.6255L18.3919 12.8191C18.4143 12.8183 18.4366 12.8154 18.4584 12.8106L21.0947 12.2046C21.1204 12.2115 21.1468 12.2156 21.1735 12.2168C21.1983 12.2165 21.223 12.2138 21.2473 12.2086L22.6281 12.4439V13.3396C22.6281 13.4044 22.6449 13.4682 22.6768 13.5246L23.2982 14.6196C23.3225 14.6625 23.355 14.7001 23.3938 14.7304C23.4327 14.7607 23.4771 14.783 23.5245 14.7962C23.572 14.8093 23.6216 14.8129 23.6705 14.8069C23.7194 14.8008 23.7666 14.7852 23.8094 14.7609C23.8523 14.7366 23.8899 14.7041 23.9202 14.6653C23.9505 14.6265 23.9728 14.582 23.9859 14.5346C23.9991 14.4871 24.0027 14.4375 23.9967 14.3886C23.9906 14.3398 23.975 14.2925 23.9507 14.2497L23.3781 13.2406V12.1274C23.3781 12.0388 23.3468 11.9531 23.2897 11.8855C23.2326 11.8178 23.1534 11.7725 23.0661 11.7576L21.4204 11.4773C20.7261 10.178 18.5102 9.9462 18.411 9.93645C18.3761 9.9337 18.341 9.93585 18.3068 9.94283C18.3011 9.94376 18.2959 9.94508 18.2904 9.9462C18.225 9.96125 18.1649 9.99363 18.1163 10.04C18.1133 10.0431 18.1091 10.0446 18.1061 10.0478C17.8883 10.2477 17.6386 10.4099 17.3674 10.5275C17.4077 10.471 17.4314 10.4045 17.436 10.3353C17.4486 10.1515 17.7026 5.86733 14.4593 4.64895L14.1486 4.25839C14.5814 3.80438 14.8194 3.19905 14.8118 2.57183C14.8109 2.17906 14.7202 1.79169 14.5466 1.4394C14.3729 1.0871 14.1209 0.779215 13.8099 0.539326C13.5257 0.30806 13.1924 0.144823 12.8354 0.0620865C12.4784 -0.0206497 12.1073 -0.0206961 11.7503 0.061951C11.0765 0.213639 10.4672 0.572368 10.0076 1.08784C9.54808 1.60331 9.26137 2.24968 9.1877 2.93633C9.1837 2.99372 9.19296 3.05126 9.21477 3.1045C9.23657 3.15774 9.27033 3.20525 9.31343 3.24335C9.35654 3.28146 9.40784 3.30913 9.46335 3.32423C9.51886 3.33934 9.57711 3.34146 9.63357 3.33045L9.94239 3.27026C9.96766 3.70528 10.1391 4.11901 10.4289 4.44439C10.3426 4.5866 10.2926 4.74791 10.2834 4.91404C10.2742 5.08018 10.3061 5.24602 10.3763 5.39689L10.4659 5.58908C10.5267 5.72151 10.618 5.83767 10.7323 5.92807C10.8467 6.01846 10.9807 6.08053 11.1236 6.1092C11.1869 6.12225 11.2514 6.12885 11.316 6.12889C11.5496 6.1284 11.7748 6.04128 11.9479 5.88439C12.0517 5.79357 12.1605 5.70862 12.2738 5.62995L12.3158 5.7417C11.2636 6.83336 10.0522 7.75947 8.72289 8.48858C8.60846 8.54885 8.50862 8.63346 8.43039 8.73645L7.92939 8.69389C7.8566 8.68772 7.7836 8.70294 7.71935 8.73768C7.6551 8.77242 7.60239 8.82517 7.5677 8.88945L6.65307 10.5841C6.01464 9.79958 4.58232 9.74933 4.50939 9.74745C4.45931 9.74634 4.40951 9.75515 4.36285 9.77336C4.31619 9.79158 4.27359 9.81884 4.23751 9.85358C4.20165 9.88853 4.17315 9.93032 4.1537 9.97646C4.13425 10.0226 4.12424 10.0722 4.12426 10.1223V12.7473C4.12426 12.8467 4.16377 12.9421 4.2341 13.0124C4.30442 13.0828 4.39981 13.1223 4.49926 13.1223C4.50939 13.1223 4.51989 13.1217 4.53001 13.121C4.81229 13.094 5.09178 13.0433 5.36551 12.9693L4.76326 14.0851C4.27448 13.9097 3.75324 13.8433 3.2361 13.8906C2.71896 13.938 2.21843 14.0979 1.7696 14.3591C1.32078 14.6203 0.934522 14.9765 0.637918 15.4028C0.341314 15.829 0.141541 16.315 0.0526052 16.8267C-0.0363307 17.3383 -0.0122766 17.8632 0.123081 18.3645C0.258439 18.8659 0.501823 19.3316 0.836171 19.7289C1.17052 20.1263 1.58773 20.4457 2.05857 20.6647C2.5294 20.8838 3.04246 20.9972 3.56176 20.9971ZM18.7493 10.7453C19.3136 10.8554 20.1173 11.104 20.5564 11.5587L18.7493 11.9742V10.7453ZM12.0574 10.1223H9.62926C9.55579 10.1223 9.48237 10.1263 9.40932 10.1343C9.45351 10.1236 9.49687 10.1099 9.53907 10.093C9.6647 10.0409 9.83401 9.97676 10.0326 9.90176C11.2819 9.42964 12.6184 8.87933 13.3463 8.16308L13.6577 8.98826C13.4948 9.37022 13.4653 9.79591 13.5739 10.1967L13.1949 10.4663C12.8578 10.2426 12.4624 10.1229 12.0578 10.1223H12.0574ZM16.4678 11.2036C16.0127 11.9592 14.3642 12.4396 12.9729 12.6372C12.8015 12.6622 12.6439 12.7458 12.527 12.8737C12.4101 13.0016 12.341 13.166 12.3315 13.339L12.1112 17.4081C12.1065 17.4824 12.0735 17.5521 12.0189 17.6026C11.9643 17.6532 11.8924 17.6809 11.818 17.6798C11.7435 17.6788 11.6724 17.6492 11.6192 17.5972C11.566 17.5451 11.5348 17.4746 11.5322 17.4003L11.4126 12.9711C11.4081 12.8771 11.4273 12.7835 11.4686 12.6989C11.5098 12.6143 11.5716 12.5414 11.6484 12.487L14.1572 10.702C14.6169 10.7599 15.0798 10.789 15.5432 10.7894C15.8916 10.7904 16.2397 10.7708 16.5857 10.7307C16.5973 10.8968 16.5561 11.0624 16.4678 11.2036ZM10.6868 3.12514L11.2761 3.0102L11.3177 3.68858L10.9836 3.93983C10.7866 3.71475 10.6807 3.4242 10.6868 3.12514ZM11.4476 5.32583C11.4246 5.347 11.3969 5.36245 11.3667 5.37092C11.3366 5.37938 11.3049 5.38064 11.2742 5.37458C11.2462 5.36905 11.2199 5.35688 11.1976 5.3391C11.1752 5.32132 11.1574 5.29844 11.1458 5.27239L11.056 5.07983C11.0317 5.02872 11.025 4.97104 11.0369 4.91574C11.0488 4.86043 11.0786 4.81061 11.1218 4.77401L11.9299 4.16689C11.9795 4.12962 12.019 4.08063 12.045 4.02431C12.071 3.96799 12.0826 3.90611 12.0788 3.8442L11.9985 2.53733C11.9953 2.48401 11.9806 2.432 11.9557 2.38479C11.9307 2.33757 11.8959 2.29624 11.8537 2.26356C11.8114 2.23087 11.7627 2.20759 11.7107 2.19528C11.6587 2.18296 11.6047 2.18189 11.5523 2.19214L10.0509 2.48501C10.188 2.06271 10.4336 1.68385 10.7632 1.38642C11.0928 1.08899 11.4948 0.883443 11.9289 0.790389C12.1755 0.735195 12.4315 0.737062 12.6772 0.795845C12.923 0.854629 13.1521 0.968776 13.347 1.12958C13.5683 1.29952 13.7477 1.51785 13.8716 1.76783C13.9955 2.01781 14.0605 2.29283 14.0618 2.57183C14.0618 3.60495 13.2756 4.09864 12.4434 4.6212C12.0926 4.82807 11.7595 5.06375 11.4476 5.32583ZM9.00301 9.2352C9.00761 9.21758 9.01598 9.20116 9.02753 9.18708C9.03909 9.17299 9.05356 9.16159 9.06995 9.15364C10.5472 8.34885 11.8843 7.30987 13.029 6.07714C13.0745 6.02603 13.1051 5.96347 13.1175 5.89621C13.13 5.82896 13.1238 5.75957 13.0997 5.69558L12.9165 5.20958C13.1359 5.07139 13.3654 4.92364 13.5868 4.75751L13.938 5.19889C13.9822 5.25448 14.0413 5.29635 14.1084 5.31964C16.4409 6.12983 16.6798 8.98751 16.6922 9.95839C15.8938 10.0609 15.0856 10.0621 14.2869 9.96176C14.1864 9.70039 14.3286 9.30233 14.3959 9.16695C14.4195 9.12051 14.4331 9.06966 14.4359 9.01766C14.4388 8.96565 14.4308 8.91362 14.4124 8.86489L13.8019 7.2477C13.7753 7.17724 13.7281 7.11643 13.6664 7.07318C13.6048 7.02993 13.5315 7.00625 13.4562 7.00522C13.3809 7.00419 13.307 7.02585 13.2442 7.0674C13.1814 7.10894 13.1325 7.16844 13.104 7.23814C12.7652 8.06689 10.74 8.83245 9.76689 9.20033C9.59378 9.26459 9.42164 9.33141 9.25051 9.40076C9.21101 9.41767 9.16698 9.4208 9.12548 9.40964C9.08399 9.39849 9.04746 9.3737 9.02176 9.33926C9.01141 9.32421 9.00439 9.30713 9.00116 9.28916C8.99792 9.27118 8.99856 9.25291 9.00301 9.2352ZM8.1107 9.46208L8.27945 9.47633C8.30232 9.57495 8.34203 9.66889 8.39682 9.75401C8.48626 9.88729 8.60864 9.99517 8.75208 10.0672C8.89552 10.1392 9.05514 10.1729 9.21545 10.165C8.79026 10.2522 8.40333 10.4712 8.10957 10.7907L7.51632 10.5633L8.1107 9.46208ZM7.15707 11.2287L7.56807 11.3862L7.13551 11.8625C7.09582 11.9065 7.06035 11.9542 7.02957 12.005L6.78189 11.9238L7.15707 11.2287ZM4.87426 12.3125V10.5361C5.38539 10.6161 6.10182 10.8327 6.19314 11.317C6.19817 11.3431 6.20597 11.3685 6.21639 11.393L5.94451 11.8964C5.62155 12.1099 5.25663 12.2517 4.87426 12.3125ZM3.2117 17.749C3.25502 17.7725 3.30255 17.7871 3.35155 17.7922C3.40055 17.7972 3.45006 17.7926 3.49726 17.7785C3.54446 17.7644 3.58841 17.7411 3.6266 17.71C3.66479 17.6789 3.69647 17.6405 3.71982 17.5971L4.36614 16.3998C4.61062 16.5906 4.77947 16.862 4.84268 17.1657C4.90588 17.4693 4.85932 17.7856 4.7113 18.0581C4.56327 18.3307 4.32337 18.5419 4.03426 18.6542C3.74514 18.7665 3.42557 18.7726 3.13236 18.6715C2.83916 18.5703 2.59134 18.3685 2.43298 18.1018C2.27462 17.8351 2.21598 17.5209 2.2675 17.215C2.31902 16.9092 2.47735 16.6315 2.71434 16.4314C2.95132 16.2313 3.2516 16.1218 3.56176 16.1223C3.59532 16.1223 3.62814 16.1247 3.66114 16.1271L3.06001 17.2409C3.03662 17.2842 3.02199 17.3317 3.01696 17.3807C3.01194 17.4297 3.01661 17.4792 3.03071 17.5264C3.04481 17.5736 3.06807 17.6175 3.09916 17.6557C3.13025 17.6939 3.16855 17.7256 3.21189 17.749H3.2117ZM3.56176 14.6221C3.84732 14.6219 4.13122 14.6654 4.40364 14.7511L4.03745 15.4296C3.53732 15.3114 3.01105 15.3842 2.56187 15.6339C2.11268 15.8836 1.77298 16.2921 1.6094 16.7793C1.44582 17.2665 1.47015 17.7972 1.67763 18.2674C1.88511 18.7376 2.26077 19.1133 2.73092 19.3208C3.20107 19.5283 3.7318 19.5527 4.21901 19.3892C4.70622 19.2257 5.11475 18.886 5.36449 18.4369C5.61423 17.9877 5.68715 17.4615 5.56895 16.9613C5.45075 16.4612 5.14996 16.0232 4.72557 15.7334L5.08257 15.0723C5.64967 15.439 6.06559 15.9979 6.2541 16.6464C6.44262 17.295 6.39109 17.9897 6.10897 18.6033C5.82684 19.2169 5.33303 19.7083 4.71803 19.9874C4.10302 20.2665 3.40804 20.3146 2.76044 20.1229C2.11285 19.9312 1.55604 19.5126 1.19206 18.9437C0.828077 18.3748 0.681314 17.6938 0.778669 17.0255C0.876023 16.3571 1.21097 15.7463 1.72213 15.3049C2.23328 14.8635 2.88639 14.6211 3.56176 14.6221Z" fill="white"/>
</svg>
