<svg width="23" height="24" viewBox="0 0 23 24" fill="none" xmlns="http://www.w3.org/2000/svg">
    <path d="M22.2983 5.29554L11.4014 0.0349441C11.3537 0.0119448 11.3014 0 11.2485 0C11.1956 0 11.1434 0.0119448 11.0957 0.0349441L0.198703 5.29554C0.139164 5.32429 0.0889376 5.36924 0.0537904 5.42524C0.0186431 5.48124 -4.15707e-07 5.54602 0 5.61213V18.3879C-4.15707e-07 18.454 0.0186431 18.5188 0.0537904 18.5748C0.0889376 18.6308 0.139164 18.6757 0.198703 18.7045L11.0956 23.9651C11.1433 23.9881 11.1956 24 11.2485 24C11.3014 24 11.3537 23.9881 11.4014 23.9651L22.2983 18.7045C22.3578 18.6757 22.4081 18.6308 22.4432 18.5748C22.4784 18.5188 22.497 18.454 22.497 18.3879V5.61218C22.497 5.54606 22.4784 5.48128 22.4432 5.42527C22.4081 5.36926 22.3578 5.3243 22.2983 5.29554ZM11.2485 0.74196L21.3368 5.61213L18.4124 7.02391C18.3939 7.00944 18.3739 6.99687 18.3529 6.98641L8.33311 2.14938L11.2485 0.74196ZM7.53914 2.54688L17.6128 7.40998L15.5496 8.40602L5.48011 3.5449L7.53914 2.54688ZM17.8485 8.07691V11.7588L15.9213 12.6891V9.00729L17.8485 8.07691ZM21.7939 18.1673L11.6001 23.0883V11.0934L14.0316 9.91952C14.0732 9.89945 14.1104 9.87138 14.1411 9.83693C14.1719 9.80247 14.1955 9.7623 14.2107 9.71871C14.2259 9.67511 14.2324 9.62895 14.2297 9.58286C14.2271 9.53677 14.2154 9.49164 14.1953 9.45007C14.1753 9.40849 14.1472 9.37128 14.1127 9.34055C14.0783 9.30982 14.0381 9.28618 13.9945 9.27098C13.9509 9.25577 13.9048 9.2493 13.8587 9.25194C13.8126 9.25457 13.7675 9.26626 13.7259 9.28633L11.2485 10.4824L10.2737 10.0117C10.2321 9.99164 10.187 9.97994 10.1409 9.9773C10.0948 9.97466 10.0486 9.98112 10.005 9.99633C9.96144 10.0115 9.92127 10.0352 9.88681 10.0659C9.85236 10.0967 9.8243 10.1339 9.80423 10.1755C9.78416 10.217 9.77247 10.2622 9.76984 10.3083C9.7672 10.3543 9.77367 10.4005 9.78887 10.4441C9.80408 10.4877 9.82772 10.5279 9.85845 10.5623C9.88918 10.5968 9.92639 10.6248 9.96797 10.6449L10.8969 11.0934V23.0883L0.703125 18.1672V6.17224L8.46562 9.91966C8.51318 9.94273 8.56535 9.95471 8.6182 9.95473C8.69787 9.95482 8.77521 9.92786 8.83755 9.87825C8.89989 9.82864 8.94353 9.75933 8.96132 9.68167C8.97911 9.60401 8.97 9.52262 8.93547 9.45082C8.90095 9.37901 8.84306 9.32107 8.7713 9.28648L1.1602 5.61213L4.65262 3.92613L15.2133 9.0244C15.2148 9.02655 15.2166 9.02847 15.2182 9.03058V13.2493C15.2182 13.3088 15.2333 13.3673 15.2621 13.4194C15.2909 13.4715 15.3325 13.5154 15.3829 13.547C15.4333 13.5786 15.4909 13.597 15.5503 13.6003C15.6097 13.6036 15.669 13.5917 15.7226 13.5659L18.3529 12.2961C18.4124 12.2673 18.4626 12.2224 18.4978 12.1664C18.5329 12.1104 18.5516 12.0456 18.5516 11.9795V7.73754L21.7939 6.17229V18.1673Z" fill="#333333"/>
    <path d="M3.60454 16.8038L2.0054 16.0318C1.92143 15.9913 1.8248 15.9858 1.73676 16.0165C1.64872 16.0472 1.57649 16.1116 1.53595 16.1956C1.49541 16.2795 1.48988 16.3762 1.52059 16.4642C1.55129 16.5523 1.61572 16.6245 1.69968 16.665L3.29882 17.437C3.34638 17.4601 3.39855 17.4721 3.4514 17.4721C3.51757 17.4721 3.5824 17.4535 3.63845 17.4183C3.69449 17.3831 3.73948 17.3329 3.76823 17.2733C3.78831 17.2317 3.80001 17.1866 3.80265 17.1405C3.80529 17.0944 3.79883 17.0482 3.78363 17.0047C3.76843 16.9611 3.74479 16.9209 3.71406 16.8864C3.68333 16.852 3.64612 16.8239 3.60454 16.8038ZM5.07628 15.8458L2.0076 14.3644C1.92384 14.3254 1.82808 14.3209 1.74104 14.352C1.65401 14.383 1.58269 14.4471 1.54252 14.5303C1.50235 14.6135 1.49655 14.7092 1.52639 14.7967C1.55622 14.8841 1.61928 14.9563 1.70193 14.9976L4.7706 16.4791C4.81817 16.5021 4.87033 16.5141 4.92318 16.5141C5.00287 16.5143 5.08023 16.4873 5.14259 16.4377C5.20495 16.3881 5.24861 16.3188 5.2664 16.2411C5.28419 16.1634 5.27507 16.082 5.24053 16.0102C5.20598 15.9384 5.14807 15.8804 5.07628 15.8458Z" fill="#333333"/>
</svg>
