<svg width="24" height="24" viewBox="0 0 24 24" fill="none" xmlns="http://www.w3.org/2000/svg">
    <path d="M20.2139 14.4365L18.5519 12.7745C18.4465 12.669 18.3034 12.6098 18.1542 12.6098C18.005 12.6098 17.862 12.669 17.7565 12.7745L12.7706 17.7604C12.7011 17.8299 12.6511 17.9163 12.6254 18.0111L12.008 20.2904C11.9821 20.386 11.9819 20.4867 12.0074 20.5823C12.0329 20.678 12.0832 20.7652 12.1532 20.8352C12.2232 20.9052 12.3104 20.9555 12.4061 20.981C12.5018 21.0065 12.6025 21.0063 12.698 20.9804L14.9773 20.363C15.0721 20.3374 15.1586 20.2873 15.228 20.2178L20.2139 15.232C20.3194 15.1265 20.3786 14.9834 20.3786 14.8342C20.3786 14.6851 20.3194 14.542 20.2139 14.4365ZM14.5387 19.3164L13.3504 19.6382L13.6723 18.4499L18.1542 13.9678L19.0206 14.8342L14.5387 19.3164ZM11.2416 19.875H5.56301C5.34669 19.8748 5.1393 19.7887 4.98633 19.6358C4.83337 19.4828 4.74732 19.2754 4.74707 19.0591V9.63159H19.2536V11.8113C19.2536 11.9605 19.3129 12.1035 19.4184 12.209C19.5239 12.3145 19.6669 12.3738 19.8161 12.3738C19.9653 12.3738 20.1084 12.3145 20.2139 12.209C20.3194 12.1035 20.3786 11.9605 20.3786 11.8113V6.18435C20.3781 5.66976 20.1734 5.17642 19.8095 4.81256C19.4457 4.44869 18.9523 4.24402 18.4377 4.24344H16.826V3.5625C16.826 3.41332 16.7668 3.27024 16.6613 3.16475C16.5558 3.05926 16.4127 3 16.2635 3C16.1143 3 15.9713 3.05926 15.8658 3.16475C15.7603 3.27024 15.701 3.41332 15.701 3.5625V4.24344H8.29972V3.5625C8.29972 3.41332 8.24045 3.27024 8.13496 3.16475C8.02947 3.05926 7.8864 3 7.73722 3C7.58803 3 7.44496 3.05926 7.33947 3.16475C7.23398 3.27024 7.17472 3.41332 7.17472 3.5625V4.24344H5.56301C5.04843 4.24402 4.55508 4.44869 4.19121 4.81255C3.82734 5.17642 3.62266 5.66976 3.62207 6.18435V19.0591C3.62267 19.5737 3.82735 20.067 4.19122 20.4309C4.55509 20.7947 5.04843 20.9994 5.56301 21H11.2416C11.3908 21 11.5339 20.9407 11.6394 20.8352C11.7449 20.7298 11.8041 20.5867 11.8041 20.4375C11.8041 20.2883 11.7449 20.1452 11.6394 20.0398C11.5339 19.9343 11.3908 19.875 11.2416 19.875ZM5.56301 5.36844H7.17472V6.04935C7.17472 6.19853 7.23398 6.34161 7.33947 6.4471C7.44496 6.55258 7.58803 6.61185 7.73722 6.61185C7.8864 6.61185 8.02947 6.55258 8.13496 6.4471C8.24045 6.34161 8.29972 6.19853 8.29972 6.04935V5.36844H15.701V6.04935C15.701 6.19853 15.7603 6.34161 15.8658 6.4471C15.9713 6.55258 16.1143 6.61185 16.2635 6.61185C16.4127 6.61185 16.5558 6.55258 16.6613 6.4471C16.7668 6.34161 16.826 6.19853 16.826 6.04935V5.36844H18.4377C18.654 5.36868 18.8614 5.45472 19.0144 5.60768C19.1674 5.76064 19.2534 5.96803 19.2536 6.18435V8.50659H4.74707V6.18435C4.74732 5.96803 4.83337 5.76064 4.98633 5.60768C5.1393 5.45472 5.34669 5.36868 5.56301 5.36844Z" fill="#333333"/>
</svg>
