<svg width="14" height="10" viewBox="0 0 14 10" fill="none" xmlns="http://www.w3.org/2000/svg">
    <path d="M12.9301 1.55797C12.6764 1.29227 12.3262 1.13527 11.9277 1.13527H9.92282V1.11111C9.92282 0.809179 9.80205 0.519324 9.59674 0.326087C9.39142 0.120773 9.11364 0 8.81171 0H5.18852C4.87451 0 4.59674 0.120773 4.39142 0.326087C4.18611 0.531401 4.06534 0.809179 4.06534 1.11111V1.13527H2.07258C1.67403 1.13527 1.32379 1.29227 1.07017 1.55797C0.816543 1.81159 0.647461 2.17391 0.647461 2.56039V8.57488C0.647461 8.97343 0.804466 9.32367 1.07017 9.57729C1.32379 9.83092 1.68611 10 2.07258 10H11.9277C12.3262 10 12.6764 9.843 12.9301 9.57729C13.1837 9.32367 13.3528 8.96135 13.3528 8.57488V2.56039C13.3528 2.16184 13.1958 1.81159 12.9301 1.55797ZM12.7248 8.57488H12.7127C12.7127 8.79227 12.6281 8.98551 12.4832 9.13043C12.3383 9.27536 12.145 9.3599 11.9277 9.3599H2.07258C1.85519 9.3599 1.66195 9.27536 1.51703 9.13043C1.3721 8.98551 1.28756 8.79227 1.28756 8.57488V2.56039C1.28756 2.343 1.3721 2.14976 1.51703 2.00483C1.66195 1.8599 1.85519 1.77536 2.07258 1.77536H4.4035C4.58466 1.77536 4.72959 1.63043 4.72959 1.44928V1.09903C4.72959 0.966183 4.7779 0.845411 4.86244 0.76087C4.94698 0.676328 5.06775 0.628019 5.2006 0.628019H8.81171C8.94456 0.628019 9.06533 0.676328 9.14988 0.76087C9.23442 0.845411 9.28273 0.966183 9.28273 1.09903V1.44928C9.28273 1.63043 9.42765 1.77536 9.60881 1.77536H11.9397C12.1571 1.77536 12.3504 1.8599 12.4953 2.00483C12.6402 2.14976 12.7248 2.343 12.7248 2.56039V8.57488Z" fill="white"/>
    <path d="M7.00031 2.59668C6.17905 2.59668 5.43026 2.93484 4.89886 3.46624C4.35538 4.00972 4.0293 4.74644 4.0293 5.56769C4.0293 6.38895 4.36746 7.13774 4.89886 7.66914C5.44234 8.21262 6.17905 8.53871 7.00031 8.53871C7.82157 8.53871 8.57036 8.20054 9.10176 7.66914C9.64524 7.12566 9.97133 6.38895 9.97133 5.56769C9.97133 4.74644 9.63316 3.99765 9.10176 3.46624C8.57036 2.93484 7.82157 2.59668 7.00031 2.59668ZM8.64282 7.22228C8.22012 7.63291 7.64041 7.89861 7.00031 7.89861C6.36021 7.89861 5.7805 7.63291 5.3578 7.22228C4.93509 6.79958 4.68147 6.21987 4.68147 5.57977C4.68147 4.93967 4.94717 4.35996 5.3578 3.93726C5.7805 3.51455 6.36021 3.26093 7.00031 3.26093C7.64041 3.26093 8.22012 3.52663 8.64282 3.93726C9.06553 4.35996 9.31915 4.93967 9.31915 5.57977C9.33123 6.21987 9.06553 6.79958 8.64282 7.22228Z" fill="white"/>
    <path d="M11.2998 3.76805C11.6266 3.76805 11.8916 3.5031 11.8916 3.17626C11.8916 2.84943 11.6266 2.58447 11.2998 2.58447C10.973 2.58447 10.708 2.84943 10.708 3.17626C10.708 3.5031 10.973 3.76805 11.2998 3.76805Z" fill="white"/>
</svg>
