<svg width="24" height="24" viewBox="0 0 24 24" fill="none" xmlns="http://www.w3.org/2000/svg">
    <path d="M4.08187 22.6574C3.95249 22.6574 3.82437 22.632 3.70483 22.5825C3.58528 22.533 3.47666 22.4605 3.38518 22.369C3.29369 22.2775 3.22113 22.1689 3.17164 22.0493C3.12215 21.9298 3.0967 21.8017 3.09675 21.6723V17.7648C1.09875 15.9505 0 13.6176 0 11.1816C0 5.75652 5.38312 1.34277 12 1.34277C18.6169 1.34277 24 5.75652 24 11.1813C24 16.606 18.6165 21.0198 12 21.0198C10.5795 21.0198 9.1755 20.8105 7.82363 20.398L4.62187 22.4954C4.46148 22.6007 4.27376 22.6568 4.08187 22.6566V22.6574ZM12 2.0099C5.75062 2.0099 0.66675 6.1244 0.66675 11.1816C0.66675 13.4691 1.7265 15.6659 3.651 17.3658C3.72225 17.4288 3.7635 17.5199 3.7635 17.6159V21.6723C3.76273 21.7299 3.77795 21.7866 3.80748 21.836C3.83701 21.8855 3.87968 21.9258 3.93075 21.9524C3.9809 21.9809 4.03805 21.9947 4.09568 21.9922C4.1533 21.9898 4.20907 21.9712 4.25663 21.9385L7.58963 19.7545C7.63102 19.7274 7.67794 19.7098 7.72698 19.7031C7.77601 19.6963 7.82594 19.7006 7.87313 19.7155C9.20782 20.1388 10.5998 20.3539 12 20.353C18.2494 20.353 23.3333 16.2389 23.3333 11.1816C23.3333 6.1244 18.2494 2.0099 12 2.0099ZM18.9109 9.5009C18.9109 9.4571 18.9023 9.41373 18.8856 9.37326C18.8689 9.33279 18.8443 9.29602 18.8133 9.26506C18.7824 9.23409 18.7456 9.20954 18.7051 9.1928C18.6647 9.17606 18.6213 9.16747 18.5775 9.16752H5.42175C5.33333 9.16752 5.24854 9.20265 5.18602 9.26517C5.1235 9.32769 5.08838 9.41248 5.08838 9.5009C5.08838 9.58931 5.1235 9.67411 5.18602 9.73663C5.24854 9.79915 5.33333 9.83427 5.42175 9.83427H18.5775C18.6213 9.83432 18.6647 9.82573 18.7051 9.809C18.7456 9.79226 18.7824 9.76771 18.8133 9.73674C18.8443 9.70577 18.8689 9.669 18.8856 9.62853C18.9023 9.58807 18.9109 9.54469 18.9109 9.5009ZM12.4774 12.862C12.4775 12.8182 12.4689 12.7748 12.4522 12.7343C12.4355 12.6938 12.4109 12.6569 12.38 12.6259C12.349 12.5949 12.3122 12.5703 12.2717 12.5536C12.2312 12.5368 12.1878 12.5282 12.144 12.5283H5.42175C5.33328 12.5283 5.24844 12.5634 5.18589 12.626C5.12333 12.6885 5.08819 12.7734 5.08819 12.8618C5.08819 12.9503 5.12333 13.0351 5.18589 13.0977C5.24844 13.1603 5.33328 13.1954 5.42175 13.1954H12.144C12.1878 13.1954 12.2312 13.1868 12.2717 13.1701C12.3122 13.1533 12.349 13.1287 12.38 13.0977C12.4109 13.0667 12.4355 13.0299 12.4522 12.9894C12.4689 12.9489 12.4775 12.9058 12.4774 12.862Z" fill="black"/>
</svg>
