<svg width="24" height="24" viewBox="0 0 24 24" fill="none" xmlns="http://www.w3.org/2000/svg">
    <path d="M12 24C18.616 24 24 18.616 24 12C24 5.38401 18.6161 0 12 0C5.38394 0 0 5.38401 0 12C0 18.616 5.38401 24 12 24ZM12 1.59997C17.736 1.59997 22.4 6.26396 22.4 12C22.4 17.736 17.736 22.4 12 22.4C6.26396 22.4 1.59997 17.736 1.59997 12C1.59997 6.26396 6.26402 1.59997 12 1.59997Z" fill="#333333"/>
    <path d="M15.4999 15.8238C15.648 15.9438 15.8239 15.9998 15.9999 15.9998C16.1198 16.0001 16.2382 15.9732 16.3463 15.9213C16.4543 15.8693 16.5492 15.7936 16.6239 15.6998C16.8999 15.3558 16.8439 14.8518 16.4999 14.5758L12.7999 11.6158V5.59979C12.7999 5.15979 12.4399 4.7998 11.9999 4.7998C11.5599 4.7998 11.2 5.15979 11.2 5.59979V11.9998C11.2 12.2438 11.312 12.4718 11.4999 12.6238L15.4999 15.8238Z" fill="#333333"/>
</svg>
