<svg width="24" height="24" viewBox="0 0 24 24" fill="none" xmlns="http://www.w3.org/2000/svg">
    <path d="M15.4459 4.19727H4.2888C3.2419 4.19727 2.3916 5.04756 2.3916 6.09446V22.1026C2.3916 23.1495 3.2419 23.9998 4.2888 23.9998H15.4459C16.4928 23.9998 17.3431 23.1495 17.3431 22.1026V6.09446C17.3382 5.04756 16.4879 4.19727 15.4459 4.19727ZM16.0111 22.0977C16.0111 22.4123 15.7555 22.6679 15.441 22.6679H4.28388C3.96932 22.6679 3.71374 22.4123 3.71374 22.0977V6.09446C3.71374 5.7799 3.96932 5.52432 4.28388 5.52432H15.441C15.7555 5.52432 16.0111 5.7799 16.0111 6.09446V22.0977Z" fill="#333333"/>
    <path d="M19.7125 0H8.5554C7.5085 0 6.6582 0.850297 6.6582 1.89719C6.6582 2.26582 6.9531 2.56072 7.32173 2.56072C7.69036 2.56072 7.98526 2.26582 7.98526 1.89719C7.98526 1.58263 8.24084 1.32705 8.5554 1.32705H19.7125C20.027 1.32705 20.2826 1.58263 20.2826 1.89719V17.9054C20.2826 18.2199 20.027 18.4755 19.7125 18.4755C19.3438 18.4755 19.0489 18.7704 19.0489 19.1391C19.0489 19.5077 19.3438 19.8026 19.7125 19.8026C20.7594 19.8026 21.6097 18.9523 21.6097 17.9054V1.89719C21.6097 0.850297 20.7594 0 19.7125 0Z" fill="#333333"/>
</svg>
