<svg width="20" height="20" viewBox="0 0 20 20" fill="none" xmlns="http://www.w3.org/2000/svg">
    <g clip-path="url(#clip0_213_1413)">
        <path d="M12.9167 4.79186C13.8334 4.79186 14.5834 4.04186 14.5834 3.12518C14.5834 2.2085 13.8334 1.4585 12.9167 1.4585C12 1.4585 11.25 2.2085 11.25 3.12518C11.25 4.04186 12 4.79186 12.9167 4.79186ZM4.16668 10.2085C1.875 10.2085 0 12.0835 0 14.3752C0 16.6669 1.875 18.5419 4.16668 18.5419C6.45836 18.5419 8.33336 16.6669 8.33336 14.3752C8.33336 12.0835 6.45832 10.2085 4.16668 10.2085ZM4.16668 17.2919C2.54168 17.2919 1.25 16.0002 1.25 14.3752C1.25 12.7502 2.54168 11.4585 4.16668 11.4585C5.79168 11.4585 7.08336 12.7502 7.08336 14.3752C7.08336 16.0002 5.79168 17.2919 4.16668 17.2919Z" fill="#333333"/>
        <path d="M15.792 9.33332V7.66664C14.542 7.66664 13.5004 7.20832 12.7504 6.45832L11.1254 4.875C10.8754 4.58332 10.4587 4.375 10.0004 4.375C9.54203 4.375 9.12535 4.54168 8.83367 4.875L6.54199 7.16668C6.25031 7.45836 6.04199 7.875 6.04199 8.33336C6.04199 8.79172 6.25031 9.20836 6.54199 9.54168L9.16699 11.875V16.0417H10.8337V10.8333L9.00035 9L10.9587 7L11.5837 7.625C12.6254 8.70832 14.0837 9.33332 15.792 9.33332Z" fill="#333333"/>
        <path d="M15.8337 10.2085C13.542 10.2085 11.667 12.0835 11.667 14.3752C11.667 16.6669 13.542 18.5419 15.8337 18.5419C18.1254 18.5419 20.0004 16.6669 20.0004 14.3752C20.0004 12.0835 18.1254 10.2085 15.8337 10.2085ZM15.8337 17.2919C14.2087 17.2919 12.917 16.0002 12.917 14.3752C12.917 12.7502 14.2087 11.4585 15.8337 11.4585C17.4587 11.4585 18.7504 12.7502 18.7504 14.3752C18.7504 16.0002 17.4587 17.2919 15.8337 17.2919Z" fill="#333333"/>
    </g>
    <defs>
        <clipPath id="clip0_213_1413">
            <rect width="20" height="20" fill="white"/>
        </clipPath>
    </defs>
</svg>
