<svg width="24" height="24" viewBox="0 0 24 24" fill="none" xmlns="http://www.w3.org/2000/svg">
<g clip-path="url(#clip0_268_6472)">
<path d="M3.9881 21.325C3.90096 21.2378 3.78002 21.1877 3.65674 21.1877C3.53346 21.1877 3.41252 21.2378 3.32533 21.325C3.23814 21.4122 3.18799 21.5331 3.18799 21.6564C3.18799 21.7797 3.2381 21.9006 3.32533 21.9878C3.41252 22.075 3.53346 22.1252 3.65674 22.1252C3.78002 22.1252 3.90096 22.075 3.9881 21.9878C4.07529 21.9006 4.12549 21.7797 4.12549 21.6564C4.12549 21.5331 4.07533 21.4122 3.9881 21.325ZM22.0093 8.57533C21.9212 8.48765 21.8021 8.43829 21.6779 8.43799C21.5546 8.43799 21.4337 8.4881 21.3465 8.57533C21.2593 8.66252 21.2091 8.78346 21.2091 8.90674C21.2091 9.03002 21.2593 9.15096 21.3465 9.2381C21.4346 9.3257 21.5536 9.37506 21.6779 9.37549C21.8016 9.37549 21.9221 9.32533 22.0093 9.2381C22.0969 9.15096 22.1471 9.03002 22.1471 8.90674C22.1471 8.78346 22.0969 8.66252 22.0093 8.57533Z" fill="#333333"/>
<path d="M23.8626 0.137297C23.7746 0.049392 23.6554 7.7113e-06 23.531 0L12.0001 0.000609375C11.7412 0.000609375 11.5314 0.210516 11.5314 0.469359V1.80984L7.08813 3.00042C6.83805 3.06745 6.68964 3.32447 6.75668 3.5745L9.0595 12.1687L7.06736 14.1608C6.81382 13.7906 6.3881 13.5471 5.90655 13.5471H1.40669C0.631285 13.5471 0.000488281 14.178 0.000488281 14.9533V22.5938C0.000488281 23.3692 0.631285 24 1.40669 24H5.9066C6.56533 24 7.11949 23.5446 7.27136 22.9322L7.82871 23.4182C8.25887 23.7934 8.81034 24.0001 9.38111 24H23.5311C23.79 24 23.9999 23.7901 23.9999 23.5313V0.46875C23.9998 0.344441 23.9504 0.225232 23.8626 0.137297ZM6.37525 22.5938C6.37525 22.8522 6.16497 23.0625 5.9065 23.0625H1.40664C1.14818 23.0625 0.937894 22.8523 0.937894 22.5938V14.9534C0.937894 14.6949 1.14818 14.4846 1.40664 14.4846H3.18785V19.8844C3.18785 20.1432 3.39775 20.3531 3.6566 20.3531C3.91544 20.3531 4.12535 20.1432 4.12535 19.8844V14.4846H5.90655C6.16502 14.4846 6.3753 14.6949 6.3753 14.9534V22.5938H6.37525ZM7.78352 3.78464L11.5314 2.78039V4.51734L11.2172 4.60153C11.1577 4.61745 11.102 4.64492 11.0531 4.68239C11.0043 4.71986 10.9633 4.76659 10.9325 4.8199C10.9018 4.87321 10.8818 4.93206 10.8738 4.9931C10.8657 5.05413 10.8698 5.11615 10.8858 5.17561C11.0659 5.84784 10.6655 6.54127 9.9933 6.72141C9.93376 6.73735 9.87794 6.76488 9.82905 6.80242C9.78016 6.83997 9.73916 6.88678 9.7084 6.9402C9.67763 6.99361 9.6577 7.05257 9.64975 7.1137C9.64181 7.17482 9.646 7.23692 9.66208 7.29642L11.4892 14.0623H10.5484L10.0636 12.1655C10.0484 12.1061 10.0218 12.0502 9.98505 12.0011L7.78352 3.78464ZM11.5314 6.66698V10.6223L10.6764 7.45664C11.0335 7.27223 11.3258 6.99633 11.5314 6.66698ZM18.2656 23.0625H9.38102C9.03678 23.0625 8.70418 22.9379 8.44474 22.7116L7.31275 21.7244V15.2413L9.35922 13.1948L9.73038 14.647C9.75617 14.7478 9.8148 14.8373 9.89702 14.9011C9.97925 14.965 10.0804 14.9996 10.1845 14.9996L19.4003 15.0002C19.7622 15.0002 20.0566 15.2946 20.0566 15.6564C20.0566 16.0183 19.7622 16.3127 19.4003 16.3127H14.6781C14.4193 16.3127 14.2094 16.5226 14.2094 16.7814C14.2094 17.0403 14.4193 17.2502 14.6781 17.2502H20.8675C21.2294 17.2502 21.5238 17.5446 21.5238 17.9064C21.5238 18.2683 21.2294 18.5627 20.8675 18.5627H14.6781C14.4193 18.5627 14.2094 18.7726 14.2094 19.0314C14.2094 19.2903 14.4193 19.5002 14.6781 19.5002H19.8645C20.2264 19.5002 20.5208 19.7946 20.5208 20.1564C20.5208 20.5183 20.2264 20.8127 19.8645 20.8127H14.6781C14.4193 20.8127 14.2094 21.0226 14.2094 21.2814C14.2094 21.5403 14.4193 21.7502 14.6781 21.7502H18.2656C18.6275 21.7502 18.9219 22.0446 18.9219 22.4064C18.9218 22.7681 18.6274 23.0625 18.2656 23.0625ZM23.0624 23.0625H19.7174C19.8083 22.8622 19.8593 22.6402 19.8593 22.4062C19.8593 22.1723 19.8083 21.9503 19.7174 21.75H19.8645C20.7433 21.75 21.4582 21.0351 21.4582 20.1563C21.4584 19.9086 21.4005 19.6643 21.289 19.443C21.9639 19.2577 22.4612 18.6391 22.4612 17.9063C22.4615 17.5642 22.3512 17.2311 22.1466 16.9569V11.016C22.1466 10.7571 21.9367 10.5472 21.6778 10.5472C21.419 10.5472 21.2091 10.7571 21.2091 11.016V16.35C21.0969 16.3253 20.9823 16.3128 20.8674 16.3127H20.852C20.9457 16.1066 20.9941 15.8828 20.994 15.6564C20.994 14.7776 20.279 14.0627 19.4003 14.0627H18.6468C19.4469 13.7196 20.0088 12.9243 20.0088 12C20.0088 10.763 19.0025 9.75666 17.7655 9.75666C16.5286 9.75666 15.5222 10.763 15.5222 12C15.5222 12.9243 16.0842 13.7196 16.8843 14.0627H14.3219V5.14983C15.1593 4.96734 15.8201 4.30664 16.0025 3.46922H19.5285C19.7109 4.30664 20.3717 4.96734 21.209 5.14983V6.60717C21.209 6.86602 21.4189 7.07592 21.6778 7.07592C21.9366 7.07592 22.1465 6.86602 22.1465 6.60717V4.73133C22.1465 4.47248 21.9366 4.26258 21.6778 4.26258C20.9818 4.26258 20.4157 3.69638 20.4157 3.00047C20.4157 2.74163 20.2058 2.53172 19.947 2.53172H15.584C15.3252 2.53172 15.1153 2.74163 15.1153 3.00047C15.1153 3.69642 14.5491 4.26258 13.8532 4.26258C13.5944 4.26258 13.3845 4.47248 13.3845 4.73133V14.0627H12.4689V0.938016L23.0624 0.9375V23.0625ZM17.7656 13.3058C17.0455 13.3058 16.4598 12.72 16.4598 12C16.4598 11.28 17.0456 10.6942 17.7656 10.6942C18.4856 10.6942 19.0714 11.28 19.0714 12C19.0714 12.72 18.4856 13.3058 17.7656 13.3058Z" fill="#333333"/>
</g>
<defs>
<clipPath id="clip0_268_6472">
<rect width="24" height="24" fill="white"/>
</clipPath>
</defs>
</svg>
