<svg width="24" height="24" viewBox="0 0 24 24" fill="none" xmlns="http://www.w3.org/2000/svg">
    <g clip-path="url(#clip0_213_1438)">
        <path d="M3.98761 21.325C3.90047 21.2378 3.77953 21.1877 3.65625 21.1877C3.53297 21.1877 3.41203 21.2378 3.32484 21.325C3.23766 21.4122 3.1875 21.5331 3.1875 21.6564C3.1875 21.7797 3.23761 21.9006 3.32484 21.9878C3.41203 22.075 3.53297 22.1252 3.65625 22.1252C3.77953 22.1252 3.90047 22.075 3.98761 21.9878C4.0748 21.9006 4.125 21.7797 4.125 21.6564C4.125 21.5331 4.07484 21.4122 3.98761 21.325ZM22.0088 8.57533C21.9208 8.48765 21.8016 8.43829 21.6774 8.43799C21.5541 8.43799 21.4332 8.4881 21.346 8.57533C21.2588 8.66252 21.2086 8.78346 21.2086 8.90674C21.2086 9.03002 21.2588 9.15096 21.346 9.2381C21.4341 9.3257 21.5532 9.37506 21.6774 9.37549C21.8011 9.37549 21.9216 9.32533 22.0088 9.2381C22.0964 9.15096 22.1466 9.03002 22.1466 8.90674C22.1466 8.78346 22.0964 8.66252 22.0088 8.57533Z" fill="#333333"/>
        <path d="M23.8621 0.137297C23.7741 0.049392 23.6549 7.7113e-06 23.5305 0L11.9996 0.000609375C11.7407 0.000609375 11.5309 0.210516 11.5309 0.469359V1.80984L7.08764 3.00042C6.83756 3.06745 6.68916 3.32447 6.75619 3.5745L9.05902 12.1687L7.06687 14.1608C6.81333 13.7906 6.38761 13.5471 5.90606 13.5471H1.4062C0.630797 13.5471 0 14.178 0 14.9533V22.5938C0 23.3692 0.630797 24 1.4062 24H5.90611C6.56484 24 7.119 23.5446 7.27087 22.9322L7.82822 23.4182C8.25838 23.7934 8.80985 24.0001 9.38062 24H23.5306C23.7895 24 23.9994 23.7901 23.9994 23.5313V0.46875C23.9993 0.344441 23.95 0.225232 23.8621 0.137297ZM6.37476 22.5938C6.37476 22.8522 6.16448 23.0625 5.90601 23.0625H1.40616C1.14769 23.0625 0.937406 22.8523 0.937406 22.5938V14.9534C0.937406 14.6949 1.14769 14.4846 1.40616 14.4846H3.18736V19.8844C3.18736 20.1432 3.39727 20.3531 3.65611 20.3531C3.91495 20.3531 4.12486 20.1432 4.12486 19.8844V14.4846H5.90606C6.16453 14.4846 6.37481 14.6949 6.37481 14.9534V22.5938H6.37476ZM7.78303 3.78464L11.5309 2.78039V4.51734L11.2167 4.60153C11.1573 4.61745 11.1015 4.64492 11.0527 4.68239C11.0038 4.71986 10.9628 4.76659 10.932 4.8199C10.9013 4.87321 10.8813 4.93206 10.8733 4.9931C10.8652 5.05413 10.8693 5.11615 10.8853 5.17561C11.0654 5.84784 10.665 6.54127 9.99281 6.72141C9.93327 6.73735 9.87745 6.76488 9.82856 6.80242C9.77968 6.83997 9.73867 6.88678 9.70791 6.9402C9.67714 6.99361 9.65721 7.05257 9.64926 7.1137C9.64132 7.17482 9.64551 7.23692 9.66159 7.29642L11.4887 14.0623H10.548L10.0631 12.1655C10.048 12.1061 10.0213 12.0502 9.98456 12.0011L7.78303 3.78464ZM11.5309 6.66698V10.6223L10.6759 7.45664C11.0331 7.27223 11.3253 6.99633 11.5309 6.66698ZM18.2651 23.0625H9.38053C9.03629 23.0625 8.7037 22.9379 8.44425 22.7116L7.31226 21.7244V15.2413L9.35873 13.1948L9.72989 14.647C9.75568 14.7478 9.81431 14.8373 9.89654 14.9011C9.97876 14.965 10.0799 14.9996 10.184 14.9996L19.3998 15.0002C19.7617 15.0002 20.0561 15.2946 20.0561 15.6564C20.0561 16.0183 19.7617 16.3127 19.3998 16.3127H14.6776C14.4188 16.3127 14.2089 16.5226 14.2089 16.7814C14.2089 17.0403 14.4188 17.2502 14.6776 17.2502H20.867C21.2289 17.2502 21.5233 17.5446 21.5233 17.9064C21.5233 18.2683 21.2289 18.5627 20.867 18.5627H14.6776C14.4188 18.5627 14.2089 18.7726 14.2089 19.0314C14.2089 19.2903 14.4188 19.5002 14.6776 19.5002H19.864C20.2259 19.5002 20.5203 19.7946 20.5203 20.1564C20.5203 20.5183 20.2259 20.8127 19.864 20.8127H14.6776C14.4188 20.8127 14.2089 21.0226 14.2089 21.2814C14.2089 21.5403 14.4188 21.7502 14.6776 21.7502H18.2651C18.627 21.7502 18.9214 22.0446 18.9214 22.4064C18.9213 22.7681 18.627 23.0625 18.2651 23.0625ZM23.0619 23.0625H19.7169C19.8078 22.8622 19.8588 22.6402 19.8588 22.4062C19.8588 22.1723 19.8078 21.9503 19.7169 21.75H19.864C20.7428 21.75 21.4577 21.0351 21.4577 20.1563C21.4579 19.9086 21.4 19.6643 21.2886 19.443C21.9634 19.2577 22.4607 18.6391 22.4607 17.9063C22.461 17.5642 22.3507 17.2311 22.1461 16.9569V11.016C22.1461 10.7571 21.9362 10.5472 21.6773 10.5472C21.4185 10.5472 21.2086 10.7571 21.2086 11.016V16.35C21.0964 16.3253 20.9818 16.3128 20.8669 16.3127H20.8515C20.9452 16.1066 20.9936 15.8828 20.9935 15.6564C20.9935 14.7776 20.2785 14.0627 19.3998 14.0627H18.6463C19.4464 13.7196 20.0083 12.9243 20.0083 12C20.0083 10.763 19.002 9.75666 17.765 9.75666C16.5281 9.75666 15.5217 10.763 15.5217 12C15.5217 12.9243 16.0837 13.7196 16.8838 14.0627H14.3214V5.14983C15.1588 4.96734 15.8196 4.30664 16.002 3.46922H19.528C19.7104 4.30664 20.3712 4.96734 21.2085 5.14983V6.60717C21.2085 6.86602 21.4185 7.07592 21.6773 7.07592C21.9361 7.07592 22.146 6.86602 22.146 6.60717V4.73133C22.146 4.47248 21.9361 4.26258 21.6773 4.26258C20.9813 4.26258 20.4152 3.69638 20.4152 3.00047C20.4152 2.74163 20.2053 2.53172 19.9465 2.53172H15.5835C15.3247 2.53172 15.1148 2.74163 15.1148 3.00047C15.1148 3.69642 14.5486 4.26258 13.8527 4.26258C13.5939 4.26258 13.384 4.47248 13.384 4.73133V14.0627H12.4684V0.938016L23.0619 0.9375V23.0625ZM17.7651 13.3058C17.0451 13.3058 16.4593 12.72 16.4593 12C16.4593 11.28 17.0451 10.6942 17.7651 10.6942C18.4851 10.6942 19.0709 11.28 19.0709 12C19.0709 12.72 18.4852 13.3058 17.7651 13.3058Z" fill="#333333"/>
    </g>
    <defs>
        <clipPath id="clip0_213_1438">
            <rect width="24" height="24" fill="white"/>
        </clipPath>
    </defs>
</svg>
