<svg width="28" height="28" viewBox="0 0 28 28" fill="none" xmlns="http://www.w3.org/2000/svg">
    <path d="M13.9081 14.1679C13.9081 15.3038 13.0905 16.2619 11.982 16.5462V17.4841C11.982 17.8615 11.6757 18.1677 11.2984 18.1677C10.9211 18.1677 10.6148 17.8615 10.6148 17.4841V16.5468C9.85684 16.3532 9.21918 15.8435 8.89926 15.1408C8.74285 14.7973 8.89488 14.3916 9.23832 14.2357C9.5823 14.0793 9.98754 14.2313 10.1434 14.5748C10.3343 14.9942 10.7876 15.2655 11.2979 15.2655C11.9831 15.2655 12.5404 14.7733 12.5404 14.1679C12.5404 13.3793 11.492 13.119 11.1704 13.0583C9.63918 12.7679 8.68762 11.8284 8.68762 10.6055C8.68762 9.46969 9.5052 8.51156 10.6137 8.22719V7.2893C10.6137 6.91195 10.92 6.6057 11.2973 6.6057C11.6746 6.6057 11.9809 6.91195 11.9809 7.2893V8.22664C12.7383 8.42023 13.3765 8.92992 13.6964 9.63266C13.8529 9.97609 13.7008 10.3819 13.3574 10.5377C13.0134 10.6941 12.6082 10.5421 12.4523 10.1987C12.2614 9.77867 11.8081 9.50742 11.2979 9.50742C10.6126 9.50742 10.0554 9.99961 10.0554 10.605C10.0554 11.3936 11.1037 11.6534 11.4253 11.7141C12.9565 12.0045 13.9081 12.944 13.9081 14.1668V14.1679ZM26.3539 19.1789C26.3539 22.5351 23.6233 25.2656 20.2671 25.2656C17.7132 25.2656 15.5214 23.6841 14.6196 21.449C13.5832 21.8302 12.4649 22.0385 11.2984 22.0385C5.97566 22.0385 1.64551 17.7084 1.64551 12.3862C1.64551 7.06398 5.97566 2.73438 11.2984 2.73438C16.6211 2.73438 20.9507 7.06398 20.9507 12.3867C20.9507 12.6361 20.9409 12.8827 20.9223 13.1272C23.9717 13.4553 26.3539 16.0437 26.3539 19.1789ZM14.2537 20.1266C14.205 19.8177 14.1799 19.501 14.1799 19.1789C14.1799 16.065 16.5298 13.4903 19.5496 13.1343C19.5721 12.8877 19.5836 12.6383 19.5836 12.3867C19.5836 7.81812 15.867 4.10156 11.2984 4.10156C6.7298 4.10156 3.0127 7.81812 3.0127 12.3867C3.0127 16.9553 6.7298 20.6719 11.2984 20.6719C12.3391 20.6719 13.3355 20.4788 14.2543 20.1266H14.2537ZM24.9867 19.1789C24.9867 16.5763 22.8692 14.4594 20.2671 14.4594C17.6651 14.4594 15.5476 16.5769 15.5476 19.1789C15.5476 21.7809 17.6651 23.8984 20.2671 23.8984C22.8692 23.8984 24.9867 21.7809 24.9867 19.1789ZM20.75 16.1536C20.4832 15.8867 20.05 15.8867 19.7832 16.1536L17.7532 18.1836C17.4863 18.4505 17.4863 18.8836 17.7532 19.1505C17.8866 19.2839 18.0616 19.3506 18.2366 19.3506C18.4116 19.3506 18.5866 19.2839 18.72 19.1505L19.583 18.2875V21.7213C19.583 22.0987 19.8893 22.4049 20.2666 22.4049C20.6439 22.4049 20.9502 22.0987 20.9502 21.7213V18.2875L21.8137 19.1505C22.0806 19.4173 22.5137 19.4173 22.7806 19.1505C23.0475 18.8836 23.0475 18.4505 22.7806 18.1836L20.7506 16.1536H20.75Z" fill="#333333"/>
</svg>
