<svg width="24" height="24" viewBox="0 0 24 24" fill="none" xmlns="http://www.w3.org/2000/svg">
    <g clip-path="url(#clip0_214_1760)">
        <path d="M18.9999 12.046C18.447 12.046 18 12.494 18 13.0459V21.046C18 21.5969 17.5519 22.0459 17.0001 22.0459H3C2.44795 22.0459 2.00006 21.5969 2.00006 21.046V7.0459C2.00006 6.49493 2.44795 6.04596 3 6.04596H11.0001C11.553 6.04596 12 5.59793 12 5.04602C12 4.49398 11.553 4.0459 11.0001 4.0459H3C1.34602 4.0459 0 5.39191 0 7.0459V21.046C0 22.7 1.34602 24.046 3 24.046H17.0001C18.654 24.046 20.0001 22.7 20.0001 21.046V13.0459C20.0001 12.493 19.5529 12.046 18.9999 12.046Z" fill="#333333"/>
        <path d="M9.37613 11.1351C9.30663 11.2049 9.25903 11.2935 9.23916 11.39L8.53219 14.9262C8.49924 15.09 8.55122 15.259 8.66916 15.378C8.7157 15.4244 8.77093 15.4612 8.83169 15.4862C8.89244 15.5113 8.95754 15.5241 9.02326 15.524C9.05513 15.524 9.08827 15.5211 9.12122 15.5141L12.6563 14.8071C12.7542 14.787 12.8432 14.7401 12.9122 14.67L20.8243 6.75796L17.2892 3.22311L9.37613 11.1351ZM23.2681 0.77816C22.2933 -0.196887 20.7072 -0.196887 19.7331 0.77816L18.3492 2.16205L21.8842 5.69708L23.2681 4.313C23.7402 3.84205 24.0002 3.21397 24.0002 2.546C24.0002 1.87804 23.7402 1.25 23.2681 0.77816Z" fill="#333333"/>
    </g>
    <defs>
        <clipPath id="clip0_214_1760">
            <rect width="24" height="24" fill="white"/>
        </clipPath>
    </defs>
</svg>
