<svg width="24" height="24" viewBox="0 0 24 24" fill="none" xmlns="http://www.w3.org/2000/svg">
    <path d="M8.71616 5.18112C10.7912 4.18181 13.2085 4.18181 15.2835 5.18112C17.3586 6.18043 18.8657 8.07028 19.3782 10.3157C19.8907 12.5611 19.3529 14.9177 17.9169 16.7184C16.4809 18.5191 14.303 19.5679 11.9998 19.5679C9.69668 19.5679 7.51884 18.5191 6.08284 16.7184C4.64683 14.9177 4.10895 12.5611 4.62146 10.3157C5.13396 8.07028 6.64107 6.18043 8.71616 5.18112Z" fill="#E6E6E6"/>
    <path d="M9.89985 10.1998C9.89985 10.5311 9.63122 10.7998 9.29985 10.7998C8.96848 10.7998 8.69985 10.5311 8.69985 10.1998C8.69985 9.86841 8.96848 9.59978 9.29985 9.59978C9.63122 9.59978 9.89985 9.86841 9.89985 10.1998Z" fill="#E6E6E6"/>
    <path d="M15.2998 10.1998C15.2998 10.5311 15.0312 10.7998 14.6998 10.7998C14.3685 10.7998 14.0998 10.5311 14.0998 10.1998C14.0998 9.86841 14.3685 9.59978 14.6998 9.59978C15.0312 9.59978 15.2998 9.86841 15.2998 10.1998Z" fill="#E6E6E6"/>
    <path d="M15.1818 15.1818C14.3379 16.0257 13.1933 16.4998 11.9998 16.4998C10.8064 16.4998 9.66178 16.0257 8.81787 15.1818M4.62146 10.3157C5.13396 8.07028 6.64107 6.18043 8.71616 5.18112C10.7912 4.18181 13.2085 4.18181 15.2835 5.18112C17.3586 6.18043 18.8657 8.07028 19.3782 10.3157C19.8907 12.5611 19.3529 14.9177 17.9169 16.7184C16.4809 18.5191 14.303 19.5679 11.9998 19.5679C9.69668 19.5679 7.51884 18.5191 6.08284 16.7184C4.64683 14.9177 4.10895 12.5611 4.62146 10.3157ZM9.89985 10.1998C9.89985 10.5311 9.63122 10.7998 9.29985 10.7998C8.96848 10.7998 8.69985 10.5311 8.69985 10.1998C8.69985 9.86841 8.96848 9.59978 9.29985 9.59978C9.63122 9.59978 9.89985 9.86841 9.89985 10.1998ZM15.2998 10.1998C15.2998 10.5311 15.0312 10.7998 14.6998 10.7998C14.3685 10.7998 14.0998 10.5311 14.0998 10.1998C14.0998 9.86841 14.3685 9.59978 14.6998 9.59978C15.0312 9.59978 15.2998 9.86841 15.2998 10.1998Z" stroke="#333333" stroke-linecap="round" stroke-linejoin="round"/>
</svg>
