<svg width="80" height="80" viewBox="0 0 80 80" fill="none" xmlns="http://www.w3.org/2000/svg">
    <path d="M40 0C17.944 0 0 17.944 0 40C0 62.056 17.944 80 40 80C62.056 80 80 62.056 80 40C80 17.944 62.056 0 40 0ZM40 75.6756C30.2007 75.6756 21.3125 71.7037 14.8583 65.2863C12.2686 62.7118 10.0872 59.757 8.38957 56.524C5.79521 51.581 4.32438 45.9593 4.32438 40C4.32438 20.3284 20.3284 4.32438 40 4.32438C49.3307 4.32438 57.8346 7.92659 64.1984 13.8115C67.4979 16.8624 70.2226 20.5262 72.1872 24.6214C74.4224 29.2807 75.6756 34.4967 75.6756 40C75.6756 59.6716 59.6716 75.6756 40 75.6756Z" fill="white"/>
    <path d="M44.2271 50.705C48.9715 51.6972 53.2331 54.3645 56.2272 58.2157L59.6411 55.5616C56.0189 50.9021 50.8588 47.6739 45.1122 46.472C35.8702 44.5406 26.1536 48.1077 20.3586 55.5616L23.773 58.2157C28.5612 52.0564 36.5902 49.1077 44.2271 50.705Z" fill="white"/>
    <path d="M26.6669 35.4056C29.0552 35.4056 30.9913 33.4695 30.9913 31.0812C30.9913 28.6929 29.0552 26.7568 26.6669 26.7568C24.2786 26.7568 22.3425 28.6929 22.3425 31.0812C22.3425 33.4695 24.2786 35.4056 26.6669 35.4056Z" fill="white"/>
    <path d="M53.424 35.4056C55.8123 35.4056 57.7484 33.4695 57.7484 31.0812C57.7484 28.6929 55.8123 26.7568 53.424 26.7568C51.0357 26.7568 49.0996 28.6929 49.0996 31.0812C49.0996 33.4695 51.0357 35.4056 53.424 35.4056Z" fill="white"/>
</svg>
