<svg width="28" height="28" viewBox="0 0 28 28" fill="none" xmlns="http://www.w3.org/2000/svg">
    <g clip-path="url(#clip0_71_274)">
        <path d="M27.7023 11.3783L14.4298 1.66054C14.3051 1.56924 14.1546 1.52002 14.0001 1.52002C13.8456 1.52002 13.695 1.56924 13.5704 1.66054L0.297805 11.3783C-0.0263824 11.6157 -0.09682 12.071 0.140578 12.3952C0.377977 12.7193 0.83325 12.7897 1.15738 12.5524L14 3.14919L26.8427 12.5523C26.9671 12.6437 27.1175 12.693 27.2719 12.6929C27.4959 12.6929 27.7169 12.5898 27.8594 12.3951C28.0969 12.071 28.0264 11.6157 27.7023 11.3783Z" fill="#012F64"/>
        <path d="M24.1853 12.7173C23.7835 12.7173 23.4578 13.043 23.4578 13.4448V25.0248H17.6378V18.7037C17.6378 16.6978 16.0058 15.0659 14 15.0659C11.9942 15.0659 10.3622 16.6979 10.3622 18.7037V25.0249H4.54217V13.4448C4.54217 13.0431 4.2164 12.7173 3.81467 12.7173C3.41293 12.7173 3.08716 13.0431 3.08716 13.4448V25.7524C3.08716 26.1542 3.41293 26.4799 3.81467 26.4799H11.0897C11.4723 26.4799 11.7854 26.1844 11.8144 25.8091C11.8161 25.7921 11.8172 25.7735 11.8172 25.7524V18.7038C11.8172 17.5001 12.7964 16.521 14 16.521C15.2036 16.521 16.1828 17.5002 16.1828 18.7038V25.7524C16.1828 25.7734 16.1839 25.7916 16.1856 25.8084C16.2143 26.184 16.5275 26.4799 16.9103 26.4799H24.1853C24.5871 26.4799 24.9128 26.1542 24.9128 25.7524V13.4448C24.9128 13.043 24.5871 12.7173 24.1853 12.7173Z" fill="#012F64"/>
    </g>
    <defs>
        <clipPath id="clip0_71_274">
            <rect width="28" height="28" fill="white"/>
        </clipPath>
    </defs>
</svg>
