<svg width="24" height="24" viewBox="0 0 24 24" fill="none" xmlns="http://www.w3.org/2000/svg">
    <path d="M12.0005 0C7.11182 0 3.13477 3.97705 3.13477 8.86571C3.13477 10.4751 3.85654 12.206 3.88679 12.279C4.1199 12.8323 4.57988 13.6918 4.91156 14.1956L10.9903 23.406C11.2391 23.7836 11.6073 24 12.0005 24C12.3937 24 12.7619 23.7836 13.0106 23.4065L19.0899 14.1956C19.4221 13.6918 19.8816 12.8323 20.1147 12.279C20.1449 12.2065 20.8662 10.4756 20.8662 8.86571C20.8662 3.97705 16.8891 0 12.0005 0ZM19.153 11.8743C18.9449 12.3703 18.5168 13.1698 18.219 13.6214L12.1397 22.8323C12.0198 23.0143 11.9817 23.0143 11.8618 22.8323L5.78248 13.6214C5.4847 13.1698 5.05654 12.3698 4.84846 11.8738C4.83959 11.8524 4.17779 10.2592 4.17779 8.86571C4.17779 4.55228 7.68705 1.04302 12.0005 1.04302C16.3139 1.04302 19.8232 4.55228 19.8232 8.86571C19.8232 10.2613 19.1598 11.8587 19.153 11.8743Z" fill="#333333"/>
    <path d="M12.0003 4.17285C9.41199 4.17285 7.30664 6.27872 7.30664 8.86646C7.30664 11.4542 9.41199 13.5601 12.0003 13.5601C14.5885 13.5601 16.6939 11.4542 16.6939 8.86646C16.6939 6.27872 14.5885 4.17285 12.0003 4.17285ZM12.0003 12.517C9.98774 12.517 8.34967 10.8795 8.34967 8.86646C8.34967 6.85342 9.98774 5.21588 12.0003 5.21588C14.0128 5.21588 15.6508 6.85342 15.6508 8.86646C15.6508 10.8795 14.0128 12.517 12.0003 12.517Z" fill="#333333"/>
</svg>
