<svg width="168" height="168" viewBox="0 0 168 168" fill="none" xmlns="http://www.w3.org/2000/svg">
    <circle opacity="0.08" cx="84" cy="84" r="83.5" fill="#B0BFCF" stroke="#08B783"/>
    <circle opacity="0.15" cx="83.9996" cy="84" r="71.7818" fill="#B0BFCF"/>
    <circle opacity="0.35" cx="84.0002" cy="84" r="58.0364" fill="#8A9FB8"/>
    <circle opacity="0.8" cx="83.9998" cy="84" r="45.8182" fill="#012F64"/>
    <path fill-rule="evenodd" clip-rule="evenodd" d="M74.9279 73.0953C77.334 70.6892 80.5973 69.3375 83.9999 69.3375C87.4026 69.3375 90.6659 70.6892 93.0719 73.0953C95.478 75.5013 96.8297 78.7646 96.8297 82.1673C96.8297 85.5699 95.478 88.8332 93.0719 91.2393L83.9999 100.311L74.9279 91.2393C73.7365 90.048 72.7914 88.6336 72.1466 87.0771C71.5018 85.5205 71.1699 83.8521 71.1699 82.1673C71.1699 80.4824 71.5018 78.8141 72.1466 77.2575C72.7914 75.7009 73.7365 74.2866 74.9279 73.0953ZM83.9999 85.8327C84.9721 85.8327 85.9044 85.4465 86.5918 84.7591C87.2792 84.0717 87.6654 83.1394 87.6654 82.1673C87.6654 81.1951 87.2792 80.2628 86.5918 79.5754C85.9044 78.888 84.9721 78.5018 83.9999 78.5018C83.0278 78.5018 82.0955 78.888 81.4081 79.5754C80.7207 80.2628 80.3345 81.1951 80.3345 82.1673C80.3345 83.1394 80.7207 84.0717 81.4081 84.7591C82.0955 85.4465 83.0278 85.8327 83.9999 85.8327Z" fill="white"/>
</svg>
