<svg width="24" height="24" viewBox="0 0 24 24" fill="none" xmlns="http://www.w3.org/2000/svg">
    <path d="M19.071 4.92985C17.6725 3.53141 15.8908 2.57904 13.9511 2.19317C12.0114 1.8073 10.0008 2.00525 8.17365 2.76199C6.34644 3.51873 4.78466 4.80028 3.68576 6.44459C2.58687 8.0889 2.00022 10.0221 2 11.9998V20.3338C2.00027 20.7758 2.17601 21.1995 2.48861 21.5119C2.8012 21.8244 3.22506 21.9998 3.667 21.9998H12C13.9776 21.9996 15.9107 21.413 17.555 20.3143C19.1992 19.2155 20.4808 17.6539 21.2376 15.8269C21.9944 13.9998 22.1925 11.9894 21.8069 10.0498C21.4212 8.11015 20.4692 6.32842 19.071 4.92985ZM8.178 13.1778C8.0233 13.3326 7.83964 13.4554 7.63749 13.5392C7.43534 13.623 7.21867 13.6661 6.99985 13.6661C6.78103 13.6662 6.56434 13.6231 6.36216 13.5394C6.15998 13.4557 5.97626 13.333 5.8215 13.1783C5.66674 13.0236 5.54396 12.84 5.46018 12.6378C5.3764 12.4357 5.33325 12.219 5.3332 12.0002C5.33316 11.7814 5.37621 11.5647 5.45991 11.3625C5.5436 11.1603 5.6663 10.9766 5.821 10.8218C6.13343 10.5093 6.55722 10.3336 6.99915 10.3335C7.44108 10.3335 7.86494 10.5089 8.1775 10.8213C8.49006 11.1338 8.6657 11.5576 8.6658 11.9995C8.66589 12.4414 8.49043 12.8653 8.178 13.1778ZM13.178 13.1778C13.0232 13.3326 12.8395 13.4554 12.6373 13.5391C12.4351 13.6229 12.2184 13.666 11.9995 13.666C11.7806 13.666 11.5639 13.6229 11.3617 13.5391C11.1595 13.4554 10.9758 13.3326 10.821 13.1778C10.6662 13.0231 10.5435 12.8394 10.4597 12.6371C10.376 12.4349 10.3328 12.2182 10.3328 11.9993C10.3328 11.7805 10.376 11.5638 10.4597 11.3615C10.5435 11.1593 10.6662 10.9756 10.821 10.8208C11.1336 10.5082 11.5575 10.3324 11.9996 10.3323C12.4418 10.3322 12.8658 10.5078 13.1785 10.8203C13.4912 11.1329 13.6669 11.5569 13.667 11.999C13.6671 12.4411 13.4906 12.8652 13.178 13.1778ZM18.178 13.1778C17.8654 13.4904 17.4415 13.666 16.9995 13.666C16.5575 13.666 16.1336 13.4904 15.821 13.1778C15.5084 12.8653 15.3328 12.4414 15.3328 11.9993C15.3328 11.5573 15.5084 11.1334 15.821 10.8208C16.1336 10.5082 16.5575 10.3324 16.9996 10.3323C17.4418 10.3322 17.8658 10.5078 18.1785 10.8203C18.4912 11.1329 18.6669 11.5569 18.667 11.999C18.6671 12.4411 18.4916 12.8652 18.179 13.1778H18.178Z" fill="#012F64"/>
</svg>
