<svg width="32" height="32" viewBox="0 0 32 32" fill="none" xmlns="http://www.w3.org/2000/svg">
    <path d="M17.7533 6.87667C17.5985 6.87667 17.4502 6.81521 17.3408 6.70581C17.2314 6.59642 17.1699 6.44804 17.1699 6.29333V4.33333C17.1699 3.6905 16.6461 3.16667 16.0033 3.16667C15.3604 3.16667 14.8366 3.6905 14.8366 4.33333V6.29333C14.8366 6.44804 14.7751 6.59642 14.6657 6.70581C14.5563 6.81521 14.408 6.87667 14.2533 6.87667C14.0985 6.87667 13.9502 6.81521 13.8408 6.70581C13.7314 6.59642 13.6699 6.44804 13.6699 6.29333V4.33333C13.6699 3.0465 14.7164 2 16.0033 2C17.2901 2 18.3366 3.0465 18.3366 4.33333V6.29333C18.3366 6.44804 18.2751 6.59642 18.1657 6.70581C18.0563 6.81521 17.908 6.87667 17.7533 6.87667ZM16.0033 30C13.7516 30 11.9199 28.1683 11.9199 25.9167C11.9199 25.762 11.9814 25.6136 12.0908 25.5042C12.2002 25.3948 12.3485 25.3333 12.5033 25.3333C12.658 25.3333 12.8063 25.3948 12.9157 25.5042C13.0251 25.6136 13.0866 25.762 13.0866 25.9167C13.0866 27.5243 14.3956 28.8333 16.0033 28.8333C17.6109 28.8333 18.9199 27.5243 18.9199 25.9167C18.9199 25.762 18.9814 25.6136 19.0908 25.5042C19.2002 25.3948 19.3485 25.3333 19.5033 25.3333C19.658 25.3333 19.8063 25.3948 19.9157 25.5042C20.0251 25.6136 20.0866 25.762 20.0866 25.9167C20.0866 28.1683 18.2549 30 16.0033 30Z" fill="black"/>
    <path d="M25.9155 26.5H6.08212C5.72497 26.4987 5.37672 26.3884 5.08404 26.1837C4.79135 25.979 4.56819 25.6898 4.44446 25.3548C4.32073 25.0197 4.30232 24.6549 4.39171 24.3091C4.4811 23.9633 4.67401 23.6531 4.94462 23.42C5.84957 22.6582 6.57695 21.7077 7.07575 20.6352C7.57455 19.5626 7.83271 18.3939 7.83212 17.211V13.6667C7.83212 9.16333 11.4955 5.5 15.9988 5.5C20.5021 5.5 24.1655 9.16333 24.1655 13.6667V17.211C24.1655 19.6062 25.2143 21.866 27.0436 23.4118C27.3174 23.6434 27.5134 23.9534 27.6053 24.3C27.6973 24.6465 27.6806 25.013 27.5575 25.3497C27.4345 25.6865 27.2111 25.9774 26.9174 26.1831C26.6237 26.3888 26.274 26.4994 25.9155 26.5ZM15.9988 6.66667C12.1383 6.66667 8.99878 9.80617 8.99878 13.6667V17.211C9.00007 18.5615 8.70618 19.8961 8.13768 21.1211C7.56918 22.3462 6.73981 23.4322 5.70762 24.3032C5.61595 24.3801 5.55016 24.4833 5.51917 24.5989C5.48818 24.7145 5.49349 24.8368 5.53438 24.9493C5.57526 25.0618 5.64975 25.1589 5.74773 25.2276C5.84571 25.2963 5.96245 25.3332 6.08212 25.3333H25.9155C26.0347 25.3333 26.1511 25.2968 26.2489 25.2286C26.3468 25.1605 26.4214 25.064 26.4627 24.9521C26.504 24.8402 26.5101 24.7184 26.48 24.603C26.4499 24.4876 26.3852 24.3842 26.2946 24.3067C25.2615 23.4355 24.4312 22.349 23.8619 21.1234C23.2926 19.8977 22.998 18.5624 22.9988 17.211V13.6667C22.9988 9.80617 19.8593 6.66667 15.9988 6.66667Z" fill="black"/>
</svg>
