<svg width="21" height="21" viewBox="0 0 21 21" fill="none" xmlns="http://www.w3.org/2000/svg">
    <path d="M20.4963 11.5863C20.7885 11.2938 20.9527 10.8973 20.9527 10.4838C20.9527 10.0704 20.7885 9.67384 20.4963 9.38133L19.7988 8.63133L20.2038 7.73883C20.3618 7.35859 20.3638 6.93145 20.2095 6.54973C20.0551 6.16801 19.7567 5.86236 19.3788 5.69883L18.3363 5.23383V4.16133C18.3363 3.74759 18.172 3.3508 17.8794 3.05824C17.5869 2.76568 17.1901 2.60133 16.7763 2.60133H15.7713L15.3888 1.67133C15.3159 1.47943 15.2045 1.30454 15.0613 1.15748C14.9181 1.01041 14.7462 0.894297 14.5563 0.816327C14.1745 0.658403 13.7456 0.658403 13.3638 0.816327L12.3138 1.20633L11.5638 0.456327C11.2713 0.164129 10.8748 0 10.4613 0C10.0479 0 9.65134 0.164129 9.35883 0.456327L8.60883 1.15383L7.70883 0.733827C7.32859 0.575844 6.90145 0.573821 6.51973 0.728193C6.13801 0.882566 5.83236 1.18094 5.66883 1.55883L5.20383 2.60133H4.13133C3.71759 2.60133 3.3208 2.76568 3.02824 3.05824C2.73568 3.3508 2.57133 3.74759 2.57133 4.16133V5.18133L1.67133 5.54883C1.47943 5.62171 1.30454 5.7332 1.15748 5.87639C1.01041 6.01959 0.894297 6.19145 0.816327 6.38133C0.658403 6.76314 0.658403 7.19201 0.816327 7.57383L1.20633 8.62383L0.456327 9.37383C0.164129 9.66634 0 10.0629 0 10.4763C0 10.8898 0.164129 11.2863 0.456327 11.5788L1.15383 12.3288L0.703827 13.2288C0.545844 13.6091 0.543821 14.0362 0.698193 14.4179C0.852566 14.7996 1.15094 15.1053 1.52883 15.2688L2.57133 15.7338V16.8063C2.57133 17.2201 2.73568 17.6169 3.02824 17.9094C3.3208 18.202 3.71759 18.3663 4.13133 18.3663H5.15133L5.51883 19.2663C5.59171 19.4582 5.7032 19.6331 5.84639 19.7802C5.98959 19.9272 6.16145 20.0434 6.35133 20.1213C6.73314 20.2793 7.16201 20.2793 7.54383 20.1213L8.59383 19.7313L9.34383 20.4813C9.63634 20.7735 10.0329 20.9377 10.4463 20.9377C10.8598 20.9377 11.2563 20.7735 11.5488 20.4813L12.2988 19.7838L13.1913 20.1663C13.5716 20.3243 13.9987 20.3263 14.3804 20.172C14.7621 20.0176 15.0678 19.7192 15.2313 19.3413L15.7038 18.3663H16.7763C17.1901 18.3663 17.5869 18.202 17.8794 17.9094C18.172 17.6169 18.3363 17.2201 18.3363 16.8063V15.7863L19.2363 15.4188C19.4282 15.3459 19.6031 15.2345 19.7502 15.0913C19.8972 14.9481 20.0134 14.7762 20.0913 14.5863C20.2493 14.2045 20.2493 13.7756 20.0913 13.3938L19.6938 12.4038C19.6886 12.3947 19.6858 12.3844 19.6858 12.3738C19.6858 12.3633 19.6886 12.3529 19.6938 12.3438L20.4963 11.5863ZM19.4538 10.5213L18.7038 11.2713C18.4878 11.4882 18.3401 11.7636 18.2788 12.0634C18.2175 12.3633 18.2453 12.6746 18.3588 12.9588L18.7638 13.9488C18.7669 13.9637 18.7649 13.9792 18.7581 13.9929C18.7513 14.0065 18.7401 14.0174 18.7263 14.0238L17.8338 14.3838C17.5455 14.5004 17.2987 14.7006 17.125 14.9585C16.9512 15.2164 16.8586 15.5204 16.8588 15.8313V16.7988C16.8572 16.8142 16.8504 16.8285 16.8394 16.8394C16.8285 16.8504 16.8142 16.8572 16.7988 16.8588H15.7038C15.3986 16.8581 15.0999 16.9473 14.8451 17.1154C14.5904 17.2835 14.3908 17.5229 14.2713 17.8038L13.8588 18.7863C13.8524 18.8001 13.8415 18.8113 13.8279 18.8181C13.8142 18.8249 13.7987 18.8269 13.7838 18.8238L12.8913 18.4413C12.606 18.3191 12.2905 18.2851 11.9857 18.344C11.6809 18.4028 11.4007 18.5517 11.1813 18.7713L10.4913 19.4613C10.4864 19.4663 10.4806 19.4703 10.4742 19.473C10.4677 19.4757 10.4608 19.4771 10.4538 19.4771C10.4468 19.4771 10.4399 19.4757 10.4335 19.473C10.427 19.4703 10.4212 19.4663 10.4163 19.4613L9.66633 18.7113C9.52183 18.5661 9.35002 18.4509 9.1608 18.3724C8.97158 18.2939 8.76869 18.2536 8.56383 18.2538C8.36348 18.2541 8.165 18.2923 7.97883 18.3663L6.98883 18.7713C6.97391 18.7761 6.9577 18.7749 6.94369 18.7679C6.92967 18.7608 6.91896 18.7486 6.91383 18.7338L6.55383 17.8338C6.43604 17.5469 6.23543 17.3017 5.97761 17.1294C5.71978 16.957 5.41644 16.8655 5.10633 16.8663H4.13133C4.11597 16.8647 4.10164 16.8579 4.09072 16.8469C4.0798 16.836 4.07296 16.8217 4.07133 16.8063V15.7338C4.07207 15.4286 3.98283 15.1299 3.81475 14.8751C3.64667 14.6203 3.40722 14.4208 3.12633 14.3013L2.13633 13.8888V13.8138L2.51133 12.9213C2.6259 12.6367 2.65356 12.3245 2.59083 12.0242C2.52809 11.7238 2.37776 11.4488 2.15883 11.2338L1.45383 10.5213V10.4838L2.20383 9.73383C2.41981 9.51695 2.56757 9.24158 2.62888 8.94171C2.69018 8.64183 2.66236 8.33057 2.54883 8.04633L2.20383 7.01133C2.19641 7.00023 2.19245 6.98718 2.19245 6.97383C2.19245 6.96048 2.19641 6.94743 2.20383 6.93633L3.09633 6.57633C3.38461 6.45971 3.63146 6.2596 3.80519 6.00168C3.97892 5.74376 4.07159 5.4398 4.07133 5.12883V4.16133C4.07296 4.14597 4.0798 4.13164 4.09072 4.12072C4.10164 4.1098 4.11597 4.10296 4.13133 4.10133H5.20383C5.50906 4.10207 5.80773 4.01283 6.06252 3.84475C6.3173 3.67667 6.51689 3.43722 6.63633 3.15633L7.04883 2.17383C7.05993 2.16641 7.07298 2.16245 7.08633 2.16245C7.09968 2.16245 7.11273 2.16641 7.12383 2.17383L8.01633 2.55633C8.30238 2.66906 8.61547 2.69431 8.9159 2.62888C9.21632 2.56346 9.49055 2.4103 9.70383 2.18883L10.4538 1.48383C10.4587 1.47884 10.4646 1.47487 10.471 1.47217C10.4774 1.46946 10.4843 1.46807 10.4913 1.46807C10.4983 1.46807 10.5052 1.46946 10.5117 1.47217C10.5181 1.47487 10.5239 1.47884 10.5288 1.48383L11.2788 2.23383C11.4952 2.45065 11.7706 2.59898 12.0706 2.66033C12.3707 2.72168 12.6822 2.69334 12.9663 2.57883L13.9263 2.23383C13.937 2.22531 13.9502 2.22066 13.9638 2.22066C13.9775 2.22066 13.9907 2.22531 14.0013 2.23383L14.5713 3.63633C14.6276 3.77329 14.7231 3.89054 14.8459 3.97329C14.9687 4.05604 15.1133 4.10059 15.2613 4.10133H16.7613C16.7767 4.10296 16.791 4.1098 16.8019 4.12072C16.8129 4.13164 16.8197 4.14597 16.8213 4.16133V5.23383C16.8206 5.53906 16.9098 5.83773 17.0779 6.09252C17.246 6.3473 17.4854 6.54689 17.7663 6.66633L18.7563 7.07883V7.15383L18.3738 8.04633C18.262 8.3331 18.238 8.64663 18.3047 8.9471C18.3715 9.24757 18.5261 9.52141 18.7488 9.73383L19.4538 10.4838V10.5213ZM13.4538 10.4838C13.0088 10.4838 12.5738 10.6158 12.2038 10.863C11.8338 11.1103 11.5454 11.4617 11.3751 11.8728C11.2048 12.2839 11.1602 12.7363 11.2471 13.1728C11.3339 13.6092 11.5482 14.0101 11.8628 14.3248C12.1775 14.6395 12.5784 14.8538 13.0149 14.9406C13.4513 15.0274 13.9037 14.9829 14.3149 14.8126C14.726 14.6423 15.0774 14.3539 15.3246 13.9839C15.5719 13.6138 15.7038 13.1788 15.7038 12.7338C15.7038 12.1371 15.4668 11.5648 15.0448 11.1428C14.6229 10.7209 14.0506 10.4838 13.4538 10.4838ZM13.4538 13.4838C13.3055 13.4838 13.1605 13.4398 13.0371 13.3574C12.9138 13.275 12.8177 13.1579 12.7609 13.0208C12.7042 12.8838 12.6893 12.733 12.7182 12.5875C12.7472 12.442 12.8186 12.3084 12.9235 12.2035C13.0284 12.0986 13.162 12.0272 13.3075 11.9982C13.453 11.9693 13.6038 11.9842 13.7408 12.0409C13.8779 12.0977 13.995 12.1938 14.0774 12.3171C14.1598 12.4405 14.2038 12.5855 14.2038 12.7338C14.2038 12.9327 14.1248 13.1235 13.9842 13.2642C13.8435 13.4048 13.6527 13.4838 13.4538 13.4838ZM9.70383 8.23383C9.70383 7.78882 9.57187 7.3538 9.32463 6.98379C9.0774 6.61378 8.726 6.3254 8.31487 6.1551C7.90373 5.9848 7.45133 5.94024 7.01487 6.02706C6.57842 6.11388 6.17751 6.32817 5.86284 6.64284C5.54817 6.9575 5.33388 7.35842 5.24706 7.79487C5.16024 8.23133 5.2048 8.68373 5.3751 9.09486C5.5454 9.506 5.83378 9.8574 6.20379 10.1046C6.5738 10.3519 7.00882 10.4838 7.45383 10.4838C8.05056 10.4838 8.62286 10.2468 9.04482 9.82482C9.46677 9.40286 9.70383 8.83056 9.70383 8.23383ZM6.70383 8.23383C6.70383 8.08549 6.74781 7.94049 6.83022 7.81715C6.91264 7.69381 7.02977 7.59768 7.16681 7.54092C7.30386 7.48415 7.45466 7.4693 7.60015 7.49824C7.74563 7.52718 7.87927 7.59861 7.98416 7.7035C8.08905 7.80839 8.16048 7.94202 8.18942 8.08751C8.21836 8.233 8.2035 8.3838 8.14674 8.52084C8.08997 8.65788 7.99384 8.77502 7.87051 8.85743C7.74717 8.93984 7.60216 8.98383 7.45383 8.98383C7.25492 8.98383 7.06415 8.90481 6.9235 8.76416C6.78285 8.6235 6.70383 8.43274 6.70383 8.23383ZM14.0763 6.39633L8.07633 15.3963C8.00839 15.4995 7.91601 15.5843 7.80742 15.6432C7.69882 15.702 7.57736 15.7332 7.45383 15.7338C7.30638 15.7355 7.16211 15.6909 7.04133 15.6063C6.87692 15.4964 6.76261 15.3259 6.72327 15.1321C6.68394 14.9382 6.72278 14.7367 6.83133 14.5713L12.8313 5.57133C12.8807 5.47937 12.9486 5.39871 13.0309 5.33452C13.1132 5.27033 13.208 5.22402 13.3092 5.19854C13.4104 5.17307 13.5158 5.16899 13.6186 5.18657C13.7215 5.20415 13.8195 5.24301 13.9065 5.30066C13.9935 5.3583 14.0675 5.43346 14.1238 5.52134C14.1801 5.60921 14.2174 5.70787 14.2334 5.81099C14.2494 5.91412 14.2437 6.01944 14.2166 6.12023C14.1896 6.22102 14.1418 6.31506 14.0763 6.39633Z" fill="white"/>
</svg>
