<svg width="24" height="24" viewBox="0 0 24 24" fill="none" xmlns="http://www.w3.org/2000/svg">
    <path fill-rule="evenodd" clip-rule="evenodd" d="M12.0004 21.5999C14.5465 21.5999 16.9883 20.5885 18.7886 18.7881C20.589 16.9878 21.6004 14.546 21.6004 11.9999C21.6004 9.45382 20.589 7.01203 18.7886 5.21168C16.9883 3.41133 14.5465 2.3999 12.0004 2.3999C9.45431 2.3999 7.01252 3.41133 5.21217 5.21168C3.41182 7.01203 2.40039 9.45382 2.40039 11.9999C2.40039 14.546 3.41182 16.9878 5.21217 18.7881C7.01252 20.5885 9.45431 21.5999 12.0004 21.5999ZM9.60039 8.3999C9.28213 8.3999 8.97691 8.52633 8.75186 8.75137C8.52682 8.97642 8.40039 9.28164 8.40039 9.5999V14.3999C8.40039 14.7182 8.52682 15.0234 8.75186 15.2484C8.97691 15.4735 9.28213 15.5999 9.60039 15.5999H14.4004C14.7187 15.5999 15.0239 15.4735 15.2489 15.2484C15.474 15.0234 15.6004 14.7182 15.6004 14.3999V9.5999C15.6004 9.28164 15.474 8.97642 15.2489 8.75137C15.0239 8.52633 14.7187 8.3999 14.4004 8.3999H9.60039Z" fill="#345983"/>
</svg>
