<svg width="28" height="28" viewBox="0 0 28 28" fill="none" xmlns="http://www.w3.org/2000/svg">
    <g clip-path="url(#clip0_71_292)">
        <path d="M23.8995 4.10047C21.2553 1.45633 17.7395 0 14 0C10.2605 0 6.74472 1.45627 4.10047 4.10047C1.45633 6.74472 0 10.2605 0 14C0 17.7395 1.45627 21.2553 4.10047 23.8995C6.74472 26.5437 10.2605 28 14 28C17.7395 28 21.2553 26.5437 23.8995 23.8995C26.5437 21.2553 28 17.7395 28 14C28 10.2605 26.5437 6.74472 23.8995 4.10047ZM6.07606 23.4772C6.53838 19.4995 9.95827 16.4285 14 16.4285C16.1306 16.4285 18.1343 17.2586 19.6413 18.7655C20.9145 20.0389 21.7176 21.7015 21.9241 23.477C19.7772 25.275 17.013 26.3594 14 26.3594C10.987 26.3594 8.22298 25.2752 6.07606 23.4772ZM14 14.7387C11.6555 14.7387 9.74783 12.8311 9.74783 10.4865C9.74783 8.14182 11.6555 6.23438 14 6.23438C16.3445 6.23438 18.2522 8.14182 18.2522 10.4865C18.2522 12.8311 16.3445 14.7387 14 14.7387V14.7387ZM23.3362 22.0901C22.9147 20.3926 22.0383 18.8422 20.8013 17.6055C19.793 16.5972 18.6001 15.8408 17.2992 15.3668C18.8631 14.3061 19.8928 12.5142 19.8928 10.4865C19.8928 7.23734 17.2492 4.59375 14 4.59375C10.7508 4.59375 8.1072 7.23734 8.1072 10.4865C8.1072 12.5153 9.13773 14.3078 10.7029 15.3683C9.506 15.8045 8.39841 16.4789 7.44543 17.3667C6.06539 18.6518 5.1071 20.2905 4.66277 22.0888C2.78097 19.9195 1.64062 17.0905 1.64062 14C1.64062 7.18501 7.18501 1.64062 14 1.64062C20.815 1.64062 26.3594 7.18501 26.3594 14C26.3594 17.0911 25.2186 19.9208 23.3362 22.0901Z" fill="#333333"/>
    </g>
    <defs>
        <clipPath id="clip0_71_292">
            <rect width="28" height="28" fill="white"/>
        </clipPath>
    </defs>
</svg>
