<svg width="264" height="169" viewBox="0 0 264 169" fill="none" xmlns="http://www.w3.org/2000/svg">
    <path d="M0.682617 105.766L110.563 168.587L263.318 80.4306L152.75 18.0103L0.682617 105.766Z" fill="#F0B392"/>
    <path d="M46.1362 131.731L198.261 43.8038L263.146 80.4305L110.391 168.587L46.1362 131.731Z" fill="#DDDDDD"/>
    <path d="M106.436 63.8654V33.3144H99.7871V64.0947C102.08 64.8398 104.487 64.8971 106.436 63.8654Z" fill="white"/>
    <path d="M103.799 33.429V64.6679C104.716 64.6105 105.634 64.3813 106.436 63.9227V33.429H103.799Z" fill="white"/>
    <path d="M112.34 36.2377C116.467 36.0657 121.74 34.5181 120.192 29.9326C119.275 27.1813 116.467 24.8312 114.69 22.6531C112.913 20.475 111.021 18.1249 109.015 16.0041C110.735 16.0614 114.919 16.1188 115.893 14.9724C116.868 13.826 108.27 4.36838 104.774 0.699974C103.971 -0.15981 102.653 -0.21713 101.793 0.470697C97.666 3.73787 87.1766 12.4504 88.6669 14.9724C89.5267 16.4627 91.3609 17.0359 92.9085 17.1505C89.1255 20.9335 84.8266 25.691 84.368 30.7351C83.9668 35.0913 88.4377 35.7218 92.6219 35.4926C89.756 38.989 81.9033 48.9625 83.6802 52.0004C84.5973 53.6053 87.6352 54.1212 89.4694 54.4651C93.3671 55.2676 97.3794 55.6688 101.334 55.6115C105.347 55.6688 109.302 55.0956 113.085 53.8346C115.206 53.2041 117.154 52.115 118.817 50.6821C120.651 48.9625 119.676 47.1283 118.415 45.4087C116.409 42.3708 114.403 39.2756 112.34 36.2377Z" fill="#11DF7F"/>
    <path d="M109.015 16.0042C106.952 16.4054 104.831 16.6347 102.768 16.692L120.536 31.3083C120.536 31.3083 120.995 29.5887 117.9 26.1496C114.805 22.7105 109.015 16.0042 109.015 16.0042Z" fill="#0C9E5A"/>
    <path d="M112.34 36.2377H102.022L118.874 50.7394C119.963 49.9942 120.25 48.5613 119.619 47.4149C118.53 45.4087 112.34 36.2377 112.34 36.2377Z" fill="#0C9E5A"/>
    <path d="M54.1613 103.702V56.0127H43.7866V104.103C47.3977 105.135 51.1234 105.307 54.1613 103.702Z" fill="white"/>
    <path d="M50.0342 56.1273V104.963C51.4672 104.848 52.9001 104.504 54.1611 103.817V56.1273H50.0342Z" fill="white"/>
    <path d="M63.3895 60.4836C69.8665 60.1397 78.1204 57.8469 75.7131 50.682C74.2801 46.4404 69.8665 42.6574 67.0579 39.3329C64.2493 36.0084 61.326 32.2254 58.1735 28.9009C60.8675 29.0155 67.3445 29.0728 68.9494 27.3532C70.5544 25.6337 57.0844 10.7881 51.6391 4.99887C50.4354 3.68053 48.3719 3.50858 46.939 4.65496C40.5192 9.75634 24.0687 23.3982 26.3615 27.3532C27.7371 29.7033 30.5458 30.5631 33.0678 30.7351C27.1066 36.6962 20.4003 44.0331 19.7698 51.9431C19.1966 58.764 26.1895 59.6811 32.6666 59.3372C28.1384 64.8398 15.9294 80.4306 18.7381 85.1307C20.2284 87.6527 24.9285 88.4552 27.7371 89.0284C33.8129 90.2894 40.0034 90.8626 46.2511 90.8053C52.4416 90.748 58.804 90.1174 64.6505 88.054C67.7457 86.9649 71.1849 85.4173 73.5922 83.1245C76.4582 80.4306 74.8533 77.5646 73.0191 74.8706C69.7519 70.0558 66.5993 65.2984 63.3895 60.4836Z" fill="#11DF7F"/>
    <path d="M58.2307 28.9008C55.0209 29.5314 51.7537 29.9326 48.4292 29.9899L76.1715 52.8028C76.1715 52.8028 76.9167 50.1662 72.0446 44.7209C67.1725 39.2756 58.2307 28.9008 58.2307 28.9008Z" fill="#0C9E5A"/>
    <path d="M63.3893 60.4836H47.2827L73.5921 83.1246C73.5921 83.1246 76.5154 81.0038 74.7385 77.9085C72.9616 74.8133 63.3893 60.4836 63.3893 60.4836Z" fill="#0C9E5A"/>
    <path d="M181.696 53.0321C185.765 54.2358 195.968 59.2799 198.605 73.495L180.091 61.5726L181.696 53.0321Z" fill="#68E1FD"/>
    <path opacity="0.55" d="M181.696 53.0321C185.765 54.2358 195.968 59.2799 198.605 73.495L180.091 61.5726L181.696 53.0321Z" fill="#1D2728"/>
    <path d="M165.646 105.651C165.646 105.651 160.545 104.619 160.545 103.129C160.545 101.639 166.162 101.065 166.162 101.065" fill="#1D2728"/>
    <path d="M174.661 94.812C178.602 87.9858 178.642 80.6301 174.749 78.3825C170.856 76.1349 164.505 79.8465 160.564 86.6727C156.623 93.4989 156.584 100.855 160.476 103.102C164.369 105.35 170.72 101.638 174.661 94.812Z" fill="#1D2728"/>
    <path d="M179.779 97.3558C183.72 90.5296 183.759 83.1739 179.866 80.9263C175.974 78.6787 169.623 82.3903 165.682 89.2165C161.74 96.0427 161.701 103.398 165.594 105.646C169.487 107.894 175.838 104.182 179.779 97.3558Z" fill="#707473"/>
    <path d="M177.011 96.2028C179.179 92.4471 179.204 88.4016 177.065 87.167C174.927 85.9324 171.436 87.9762 169.267 91.732C167.099 95.4877 167.074 99.5333 169.213 100.768C171.351 102.002 174.842 99.9586 177.011 96.2028Z" fill="#DDDDDD"/>
    <path d="M196.083 84.099C196.083 84.099 199.063 76.3609 198.433 73.7816C197.802 71.2022 192.242 62.1458 181.81 61.3434C171.378 60.5409 152.635 78.4244 152.635 78.4244C152.635 78.4244 148.623 96.4798 143.177 99.8617C137.732 103.243 128.848 104.447 128.848 104.447C128.848 104.447 134.694 114.019 141.515 112.93C148.336 111.841 194.822 84.6148 194.822 84.6148" fill="#68E1FD"/>
    <path d="M128.848 104.562C127.816 104.676 132.516 110.924 140.025 107.6C147.534 104.275 154.698 99.9763 155.845 93.8432C156.991 87.71 152.635 78.4817 152.635 78.4817L142.432 75.4438L143.521 94.7603C143.579 94.8176 139.853 103.415 128.848 104.562Z" fill="#68E1FD"/>
    <path opacity="0.55" d="M128.847 104.562C127.816 104.676 134.866 112.586 142.375 109.205C149.883 105.823 156.017 100.435 155.845 93.8432C155.673 87.6527 152.635 78.4817 152.635 78.4817L142.432 75.4438L143.521 94.7603C143.578 94.8176 139.853 103.415 128.847 104.562Z" fill="#1D2728"/>
    <path d="M192.815 70.5717C188.975 66.5021 182.67 66.5021 177.741 68.1643C167.022 71.7754 154.756 82.6087 157.564 95.1042C158.023 96.5372 158.539 97.9128 159.169 99.2312L163.067 99.8617L196.14 83.9844L197.286 79.0549C197.745 76.8768 194.306 72.1767 192.815 70.5717Z" fill="#68E1FD"/>
    <path opacity="0.55" d="M192.815 70.5717C188.975 66.5021 182.67 66.5021 177.741 68.1643C167.022 71.7754 154.756 82.6087 157.564 95.1042C158.023 96.5372 158.539 97.9128 159.169 99.2312L163.067 99.8617L196.14 83.9844L197.286 79.0549C197.745 76.8768 194.306 72.1767 192.815 70.5717Z" fill="#1D2728"/>
    <path d="M195.566 74.756C195.509 74.6987 195.452 74.6413 195.394 74.6413C184.905 59.9677 161.691 78.3097 161.232 91.837C161.232 92.5822 162.264 100.32 162.608 100.148L196.082 84.0416L197.229 79.1122C196.77 77.6219 196.254 76.189 195.566 74.756Z" fill="#68E1FD"/>
    <path opacity="0.4" d="M195.566 74.756C195.509 74.6987 195.452 74.6413 195.394 74.6413C184.905 59.9677 161.691 78.3097 161.232 91.837C161.232 92.5822 162.264 100.32 162.608 100.148L196.082 84.0416L197.229 79.1122C196.77 77.6219 196.254 76.189 195.566 74.756Z" fill="#DDDDDD"/>
    <path d="M161.232 71.8327L184.561 60.8848C184.561 60.8848 186.395 58.764 184.16 55.1529L160.201 66.5594L161.232 71.8327Z" fill="#1D2728"/>
    <path d="M158.768 58.4201C161.806 56.8725 164.787 55.0956 167.824 53.6626C170.289 52.5162 173.212 51.0833 175.964 51.1406C179.174 51.2552 185.651 53.4333 184.447 57.7896C183.874 59.6811 180.091 61.2287 178.428 62.1458C176.021 63.4068 173.614 64.5532 171.149 65.6996C168.111 67.1326 164.959 68.4509 161.806 69.7119" fill="#1D2728"/>
    <path d="M133.548 108.173L133.72 109.434C133.72 109.434 134.58 110.58 137.503 110.294C139.738 109.95 141.859 109.205 143.865 108.173C144.266 108.058 147.419 106.969 147.763 106.683C148.107 106.396 147.763 105.422 147.763 105.422" fill="#A83F1E"/>
    <path d="M141.687 100.091C141.687 100.091 140.827 103.874 139.853 104.447C138.878 105.02 136.127 106.683 134.121 107.542C132.115 108.402 135.497 110.007 139.28 108.861C142.203 107.886 145.011 106.797 147.763 105.479L147.132 99.2311" fill="black"/>
    <path d="M144.323 102.842C143.406 102.212 142.317 101.925 141.228 102.04C140.999 102.04 140.999 102.441 141.228 102.384C142.26 102.269 143.292 102.498 144.094 103.129C144.323 103.301 144.495 102.957 144.323 102.842Z" fill="#DDDDDD"/>
    <path d="M143.808 103.817C142.948 103.186 141.859 102.9 140.827 103.014C140.598 103.014 140.598 103.415 140.827 103.358C141.802 103.243 142.833 103.473 143.636 104.103C143.808 104.275 143.98 103.989 143.808 103.817Z" fill="#DDDDDD"/>
    <path d="M122.714 105.02L122.886 106.281C122.886 106.281 123.746 107.428 126.669 107.141C128.905 106.797 131.026 106.052 133.032 105.02C133.376 104.906 136.586 103.817 136.929 103.53C137.273 103.243 136.929 102.269 136.929 102.269" fill="#A83F1E"/>
    <path d="M130.797 96.9384C130.797 96.9384 129.937 100.721 128.962 101.295C127.988 101.868 125.179 103.53 123.23 104.39C121.282 105.25 124.606 106.855 128.389 105.708C131.312 104.734 134.121 103.645 136.872 102.326L136.242 96.0786" fill="black"/>
    <path d="M133.433 99.6897C132.573 99.0592 131.427 98.7726 130.338 98.8873C130.109 98.8873 130.109 99.2885 130.338 99.2312C131.37 99.1165 132.401 99.3458 133.261 99.9763C133.491 100.091 133.605 99.8044 133.433 99.6897Z" fill="#DDDDDD"/>
    <path d="M132.974 100.664C132.115 100.034 131.025 99.747 129.994 99.8616C129.764 99.8616 129.764 100.263 129.994 100.206C130.968 100.091 132 100.32 132.802 100.951C132.974 101.123 133.146 100.836 132.974 100.664Z" fill="#DDDDDD"/>
    <path d="M150.456 58.8213C150.456 58.8213 152.864 61.4007 149.138 66.674C145.412 71.9474 138.133 79.3988 138.133 79.3988L137.158 95.9067C134.407 97.9702 130.681 98.1421 127.758 96.3652C127.758 96.3652 125.981 75.9024 127.013 73.1511C128.045 70.3998 142.604 57.3311 142.604 57.3311" fill="#333333"/>
    <path d="M143.865 63.1775C143.865 63.1775 135.095 39.5621 139.05 35.0913C143.005 30.6204 150.571 28.8435 155.443 33.429C160.315 38.0145 164.156 61.3433 163.583 64.0373C163.009 66.7313 150.113 66.4447 143.865 63.1775Z" fill="#012F64"/>
    <path d="M163.583 64.0373C163.583 64.0373 165.99 66.6167 162.264 71.89C158.539 77.1634 149.253 81.1757 149.253 81.1757L150.973 101.696C147.82 103.415 143.98 103.415 140.77 101.696C140.77 101.696 137.216 79.5708 138.305 76.8768C139.394 74.1828 151.775 62.5471 151.775 62.5471" fill="#333333"/>
    <path d="M109.474 62.4324C110.645 62.4324 111.595 60.9697 111.595 59.1652C111.595 57.3608 110.645 55.8981 109.474 55.8981C108.303 55.8981 107.353 57.3608 107.353 59.1652C107.353 60.9697 108.303 62.4324 109.474 62.4324Z" fill="#1D2728"/>
    <path d="M126.383 62.891C126.268 62.3178 126.268 61.6873 126.383 61.1141L109.417 55.8981V62.4897C109.417 62.4897 124.778 67.5911 125.179 66.9606C125.752 65.8142 126.268 64.6105 126.669 63.3495C126.555 63.2349 126.44 63.0629 126.383 62.891Z" fill="#1D2728"/>
    <path d="M127.534 64.3674C127.917 62.7339 127.378 61.2104 126.331 60.9646C125.283 60.7188 124.122 61.8437 123.739 63.4772C123.356 65.1107 123.895 66.6342 124.943 66.88C125.991 67.1258 127.151 66.0009 127.534 64.3674Z" fill="#1D2728"/>
    <path d="M134.35 60.8848C134.35 60.8848 135.783 66.5021 134.35 69.2534C132.917 72.0047 127.071 73.1511 127.071 73.1511L125.236 69.7693V63.3495L134.35 60.8848Z" fill="#68E1FD"/>
    <path opacity="0.55" d="M134.35 60.8848C134.35 60.8848 135.783 66.5021 134.35 69.2534C132.917 72.0047 127.071 73.1511 127.071 73.1511L125.236 69.7693V63.3495L134.35 60.8848Z" fill="#1D2728"/>
    <path d="M116.925 65.8716C116.925 65.8716 115.148 60.1397 116.925 58.764C118.702 57.3884 126.956 56.9298 126.956 56.9298C126.956 56.9298 134.235 59.1652 134.35 60.8848C134.465 62.6044 127.3 62.4897 126.727 64.0947C126.153 65.6996 125.236 69.7119 125.236 69.7119L116.925 65.8716Z" fill="#68E1FD"/>
    <path d="M116.925 65.8716C116.925 65.8716 115.148 60.1397 116.925 58.764C118.702 57.3884 126.956 56.9298 126.956 56.9298C126.956 56.9298 134.235 59.1652 134.35 60.8848C134.465 62.6044 127.3 62.4897 126.727 64.0947C126.153 65.6996 125.236 69.7119 125.236 69.7119L116.925 65.8716Z" fill="#68E1FD"/>
    <path d="M130.968 70.2851C132.14 70.2851 133.089 68.8223 133.089 67.0179C133.089 65.2135 132.14 63.7507 130.968 63.7507C129.797 63.7507 128.848 65.2135 128.848 67.0179C128.848 68.8223 129.797 70.2851 130.968 70.2851Z" fill="#1D2728"/>
    <path d="M147.476 70.6864C147.362 70.1132 147.362 69.4827 147.476 68.9095L130.51 63.6935V70.2851C130.51 70.2851 145.871 75.3865 146.272 74.756C146.846 73.6096 147.362 72.4059 147.763 71.1449C147.591 71.0303 147.476 70.8583 147.476 70.6864Z" fill="#1D2728"/>
    <path d="M148.634 72.1971C149.017 70.5636 148.479 69.0401 147.431 68.7943C146.383 68.5485 145.223 69.6734 144.839 71.3069C144.456 72.9404 144.995 74.4638 146.043 74.7097C147.091 74.9555 148.251 73.8306 148.634 72.1971Z" fill="#1D2728"/>
    <path d="M153.093 53.1468L141.286 63.2922C141.286 63.2922 135.21 64.0374 135.038 64.6679C134.866 65.2984 136.528 65.2984 136.528 65.2984C136.528 65.2984 134.006 68.2789 135.554 70.0558C137.101 71.8327 140.598 71.9474 141.228 71.6608C141.859 71.3742 141.801 68.1643 143.292 67.7631L145.011 66.6167C145.011 66.6167 158.023 60.0824 159.628 56.4139C161.233 52.7455 158.252 39.9634 158.252 39.9634C155.558 38.9317 152.463 39.3902 150.227 41.2244C148.221 43.0013 153.093 53.1468 153.093 53.1468Z" fill="#FDE1CC"/>
    <path d="M130.567 45.8099L117.269 55.4395C117.269 55.4395 111.136 56.1847 111.021 56.8152C110.907 57.4457 112.512 57.4457 112.512 57.4457C112.512 57.4457 109.99 60.4836 111.537 62.2031C113.085 63.9227 116.581 64.0947 117.269 63.8081C117.957 63.5215 117.842 60.3116 119.333 59.9104L121.052 58.764C121.052 58.764 137.56 50.1088 139.165 46.4404C140.77 42.772 142.318 34.8047 142.318 34.8047C142.318 34.8047 143.063 31.8814 139.05 34.9767C136.987 36.6962 130.567 45.8099 130.567 45.8099Z" fill="#FDE1CC"/>
    <path d="M148.393 41.7976L150.342 49.0771C150.342 49.0771 161.061 47.2429 160.889 46.6697C160.717 46.0965 159.8 38.3011 156.016 36.2377C152.233 34.1742 148.393 41.7976 148.393 41.7976Z" fill="#012F64"/>
    <path d="M136.012 33.4864C136.012 33.4864 133.49 36.295 131.14 43.6891L139.967 48.4466L146.731 36.295C143.75 33.8303 139.853 32.8559 136.012 33.4864Z" fill="#012F64"/>
    <path d="M146.158 33.4864L148.795 32.9705C148.795 32.9705 154.756 29.7033 152.062 22.0799C149.368 14.4565 143.005 14.1126 137.617 17.0932C132.229 20.0737 132.229 33.3144 139.108 35.0913" fill="#68E1FD"/>
    <path d="M136.127 26.7801C136.127 26.7801 136.242 36.467 140.884 36.2377C145.527 36.0084 146.674 32.512 146.674 32.512C146.674 32.512 147.533 27.8691 145.47 25.5191C145.126 25.1178 136.127 26.7801 136.127 26.7801Z" fill="#FDE1CC"/>
    <path d="M135.496 25.9203C135.496 25.9203 143.578 25.4617 146.846 26.7227L147.247 25.4617C147.247 25.4617 138.764 23.4556 133.777 25.4617L135.496 25.9203Z" fill="#1D2728"/>
    <path d="M133.72 25.4617C133.72 25.4617 130.682 28.213 132.745 28.6716C139.509 30.2765 146.846 26.7227 146.846 26.7227C146.846 26.7227 142.719 23.5702 133.72 25.4617Z" fill="#1D2728"/>
    <path d="M102.996 139.182C102.996 139.182 98.067 137.234 97.0353 136.087C96.0035 134.941 99.7866 112.988 106.608 112.472C113.428 111.956 116.581 112.873 118.702 115.796" fill="#1D2728"/>
    <path d="M109.244 98.5433C108.442 95.792 108.041 92.9261 108.098 90.0601C108.041 84.9588 107.754 79.6854 108.557 74.5267C109.13 70.6864 110.563 66.0435 115.263 66.0435C123.574 66.0435 133.72 75.9024 133.72 80.5452C133.72 85.188 129.363 97.1104 130.338 104.505C131.255 111.497 139.91 112.93 143.98 112.472C143.98 112.472 136.356 117.344 133.49 117.344C132.057 117.344 130.395 116.14 129.191 115.452C126.784 114.134 124.491 112.644 122.256 111.096C118.874 108.803 115.263 106.683 112.397 103.702C110.907 102.154 109.818 100.435 109.244 98.5433Z" fill="#68E1FD"/>
    <path d="M112.049 128.393C115.991 121.566 116.03 114.211 112.137 111.963C108.244 109.715 101.893 113.427 97.9521 120.253C94.0109 127.079 93.9717 134.435 97.8645 136.683C101.757 138.93 108.108 135.219 112.049 128.393Z" fill="#1D2728"/>
    <path d="M117.156 130.946C121.098 124.12 121.137 116.764 117.244 114.517C113.351 112.269 107 115.981 103.059 122.807C99.1178 129.633 99.0786 136.989 102.971 139.237C106.864 141.484 113.215 137.773 117.156 130.946Z" fill="#707473"/>
    <path d="M114.394 129.785C116.562 126.029 116.586 121.984 114.448 120.749C112.31 119.514 108.818 121.558 106.65 125.314C104.482 129.07 104.457 133.115 106.595 134.35C108.734 135.585 112.225 133.541 114.394 129.785Z" fill="#DDDDDD"/>
    <path d="M115.148 110.81L109.646 125.827C109.646 125.827 109.817 128.063 111.938 127.375L118.759 111.268L115.148 110.81Z" fill="#1D2728"/>
    <path d="M113.486 100.091C110.047 100.206 106.78 101.409 104.086 103.53C103.684 103.874 103.283 104.218 102.939 104.619C100.704 107.256 99.0415 110.294 98.0097 113.618C97.7231 114.593 98.0097 115.624 98.7549 116.312C100.417 117.86 102.481 118.892 104.716 119.235C105.92 119.407 107.123 118.834 107.754 117.745C108.958 115.567 111.709 111.899 116.638 112.472C123.574 113.217 126.669 113.79 126.727 113.79C126.784 113.79 127.816 108.631 121.568 101.639C118.988 100.664 116.237 100.091 113.486 100.091Z" fill="#68E1FD"/>
    <path opacity="0.55" d="M113.486 100.091C110.047 100.206 106.78 101.409 104.086 103.53C103.684 103.874 103.283 104.218 102.939 104.619C100.704 107.256 99.0415 110.294 98.0097 113.618C97.7231 114.593 98.0097 115.624 98.7549 116.312C100.417 117.86 102.481 118.892 104.716 119.235C105.92 119.407 107.123 118.834 107.754 117.745C108.958 115.567 111.709 111.899 116.638 112.472C123.574 113.217 126.669 113.79 126.726 113.79C126.784 113.79 127.644 107.027 121.568 101.639C118.988 100.664 116.237 100.091 113.486 100.091Z" fill="#1D2728"/>
    <path opacity="0.55" d="M116.925 84.3856C119.458 84.3856 121.511 82.3326 121.511 79.8001C121.511 77.2675 119.458 75.2145 116.925 75.2145C114.393 75.2145 112.34 77.2675 112.34 79.8001C112.34 82.3326 114.393 84.3856 116.925 84.3856Z" fill="#1D2728"/>
    <path d="M142.948 59.9104C140.999 53.2041 139.337 46.3831 138.076 39.4476C137.961 38.9317 137.158 39.161 137.216 39.6768C138.477 46.5551 140.139 53.3761 142.145 60.1397C142.203 60.369 142.432 60.4836 142.661 60.4263C142.89 60.4263 143.062 60.197 142.948 59.9104C143.005 59.9104 143.005 59.9104 142.948 59.9104Z" fill="#012B5B"/>
    <path d="M159.685 47.1282L150.973 48.9051C149.998 46.0392 149.138 43.0586 148.451 40.1353C148.393 39.9061 148.107 39.7914 147.877 39.8487C147.705 39.9061 147.534 40.1353 147.591 40.3646C148.336 43.4598 149.253 46.4977 150.285 49.5356C150.342 49.7649 150.571 49.8796 150.801 49.8222L159.972 47.9307C160.43 47.8161 160.201 46.9563 159.685 47.1282Z" fill="#012B5B"/>
</svg>
