<svg width="194" height="156" viewBox="0 0 194 156" fill="none" xmlns="http://www.w3.org/2000/svg">
    <path d="M193.796 74.3755L53.0681 155.632L0.204102 124.888L142.5 42.6235L193.796 74.3755Z" fill="#DDDDDD"/>
    <path d="M113.156 77.7354C113.156 77.7354 109.684 86.0794 113.828 89.7754C115.844 91.0634 117.972 92.1835 120.212 93.0795C120.212 93.0795 115.844 90.5594 116.796 85.5754C117.748 80.5914 121.108 76.3354 121.108 76.3354" fill="#414044"/>
    <path d="M132.917 84.8824C136.252 78.4247 135.703 71.5103 131.691 69.4386C127.679 67.3669 121.723 70.9224 118.388 77.3801C115.054 83.8378 115.603 90.7522 119.615 92.8239C123.627 94.8956 129.583 91.3401 132.917 84.8824Z" fill="#26262B"/>
    <path d="M129.264 84.3074C130.938 81.0648 130.669 77.5965 128.663 76.5606C126.657 75.5248 123.674 77.3137 122 80.5563C120.325 83.7989 120.594 87.2672 122.6 88.3031C124.606 89.3389 127.59 87.55 129.264 84.3074Z" fill="#DDDDDD"/>
    <path d="M72.3877 52.8154C72.3877 52.8154 70.4837 55.4474 69.9237 57.5754C69.9237 57.5754 63.1477 56.3434 60.4037 63.5114C57.6597 70.6794 57.3797 82.3274 61.4117 90.7834L63.5397 88.0954C63.5397 88.0954 69.6997 90.3354 70.6517 92.2954C71.6037 94.2554 73.1717 106.071 73.1717 106.071C73.1717 106.071 82.1317 112.623 92.2677 111.055C102.404 109.487 112.764 92.7434 113.66 92.0714C114.556 91.3994 140.204 76.5034 142.164 74.4874C147.092 69.4474 141.604 60.4874 136.676 57.5754C129.172 53.1514 120.268 54.4394 112.092 55.6154C106.436 56.3994 98.2037 57.2394 94.0037 61.6074C93.7237 61.8874 93.4437 62.2234 93.2197 62.6154C90.2517 67.3194 88.2917 72.5834 87.4517 78.0714L82.5797 80.5354C82.5797 80.5354 86.4997 70.5674 79.1637 62.1674L82.4677 57.0154" fill="#68E1FD"/>
    <path opacity="0.56" d="M110.636 90.7834L106.772 88.3754C106.772 88.3754 99.7158 89.4394 95.7398 86.1914C91.7638 82.9434 92.3238 80.3114 92.3238 80.3114L87.4518 78.0154L82.5798 80.4794C81.6838 86.5274 81.3478 93.3034 83.0838 99.1834C83.8678 101.871 85.2678 104.559 87.8438 105.791C91.0918 107.247 95.1238 105.847 97.8678 103.887C102.852 100.359 106.604 95.4314 110.636 90.7834Z" fill="#414044"/>
    <path d="M52.2836 111.839C52.2836 111.839 48.8116 120.183 52.9556 123.879C54.8596 125.391 56.9876 126.511 59.3396 127.183C59.3396 127.183 55.0276 124.663 55.9236 119.679C56.8196 114.695 60.2356 110.439 60.2356 110.439" fill="#414044"/>
    <path d="M72.0216 118.988C75.3562 112.531 74.8071 105.616 70.7951 103.545C66.7831 101.473 60.8275 105.028 57.4929 111.486C54.1583 117.944 54.7075 124.858 58.7195 126.93C62.7315 129.002 68.687 125.446 72.0216 118.988Z" fill="#26262B"/>
    <path d="M68.4172 118.439C70.0916 115.197 69.8228 111.728 67.8168 110.692C65.8108 109.657 62.8272 111.446 61.1528 114.688C59.4785 117.931 59.7473 121.399 61.7533 122.435C63.7593 123.471 66.7428 121.682 68.4172 118.439Z" fill="#DDDDDD"/>
    <path opacity="0.33" d="M113.604 92.0715C113.604 92.0715 112.764 78.0715 126.876 69.1675C143.564 58.6395 145.524 72.3595 142.108 74.4875C129.788 82.2715 113.604 92.0715 113.604 92.0715Z" fill="#414044"/>
    <path d="M85.8835 80.4795C85.8835 80.4795 83.6995 82.6635 82.2435 83.3915C80.7875 84.1195 79.1635 86.6955 79.9475 88.9915C80.7315 91.2874 90.0835 86.3595 91.8755 84.7355C91.8755 84.7355 92.2115 80.4795 91.4835 79.1915C90.7555 77.9035 85.8835 80.4795 85.8835 80.4795Z" fill="#26262B"/>
    <path d="M97.9238 90.2795C97.9238 90.2795 92.2118 98.7915 94.7318 102.208C97.2518 105.624 102.572 95.6555 102.796 94.5355C103.02 93.4155 102.796 89.5515 102.796 89.5515L97.9238 90.2795Z" fill="#26262B"/>
    <path d="M112.372 44.9195C112.372 44.9195 116.236 41.6155 121.78 44.5835C127.324 47.5515 128.78 47.8315 129.06 52.0315C129.34 56.2315 128.836 57.8555 126.26 59.6475C123.684 61.4395 119.876 62.5595 113.66 67.3755C113.66 67.3755 108.844 70.5115 106.66 68.8315" fill="#414044"/>
    <path d="M128.388 49.1755C126.148 52.4795 122.34 54.3275 118.868 56.1755C115.396 58.0235 111.924 60.0395 108.34 61.7195L106.604 68.8315C108.788 70.5115 113.604 67.3755 113.604 67.3755C119.876 62.5595 123.628 61.4395 126.204 59.6475C128.78 57.8555 129.34 56.2315 129.004 52.0315C129.004 51.0235 128.78 50.0715 128.388 49.1755Z" fill="#26262B"/>
    <path d="M97.9238 44.5835C97.5318 44.8635 78.2678 53.9355 76.4198 58.3595C74.5718 62.7835 85.0998 79.5835 85.0998 79.5835C85.0998 79.5835 89.1318 82.6635 92.6038 78.3515C92.6038 78.3515 90.1958 66.1435 89.1318 64.2395L97.9238 60.3755C96.8598 63.9595 96.1878 67.7115 95.9078 71.4635C95.6278 77.0635 97.9238 90.2795 97.9238 90.2795C97.9238 90.2795 101.788 92.2955 103.916 90.2795C106.044 88.2635 108.564 65.7515 108.564 65.7515C108.564 65.7515 115.06 59.2555 116.236 55.1115C117.188 51.9195 117.188 48.5035 116.18 45.3675L97.9238 44.5835Z" fill="#26262B"/>
    <path d="M95.2915 14.8474C95.2915 14.8474 92.6035 15.1834 90.9795 16.1354C88.6275 17.5354 84.2595 22.2955 82.1875 28.6235L89.1315 32.3755L92.6595 27.3914C92.6595 27.3914 96.5795 43.1274 97.6995 44.9194C98.8195 46.7114 114.5 45.8155 116.347 45.4235C116.347 45.4235 117.411 25.0954 109.347 17.0874C105.596 13.3914 95.2915 14.8474 95.2915 14.8474Z" fill="#C45E31"/>
    <path d="M82.6354 28.9036C81.4594 30.2476 80.2274 31.5356 78.8834 32.7116C77.0914 34.1676 68.6914 40.0476 68.6914 40.0476C68.6914 40.0476 72.2754 43.7436 72.8354 43.4076C73.3954 43.0716 81.9074 38.5356 84.4274 36.1276C86.3314 34.3356 87.7314 33.1036 88.6274 32.0956C86.6114 30.8636 84.7634 30.0796 82.6354 28.9036Z" fill="#FCD1C0"/>
    <path d="M92.1557 105.344C85.8837 99.8555 82.1317 88.3195 83.0277 80.2555L82.5237 80.4795C82.5237 80.4795 86.4437 70.5115 79.1077 62.1115L82.4117 56.9595L72.3877 52.7595C72.3877 52.7595 70.4837 55.3915 69.9237 57.5195C69.9237 57.5195 63.1477 56.2875 60.4037 63.4555C57.6597 70.6235 57.3797 82.2715 61.4117 90.7275L63.5397 88.0395C63.5397 88.0395 69.6997 90.2795 70.6517 92.2395C71.6037 94.1995 73.2277 106.016 73.2277 106.016C73.2277 106.016 82.1877 112.568 92.3237 111C94.1157 110.664 95.7957 110.048 97.3637 109.096C95.4597 108.032 93.7797 106.744 92.1557 105.344Z" fill="#68E1FD"/>
    <path d="M71.8839 91.4556C71.8839 91.4556 68.5239 88.5436 64.6039 87.4796C60.6839 86.4156 50.0439 106.352 50.0439 108.984C50.0439 111.616 52.1719 114.808 57.6039 113.8C57.6039 113.8 63.8759 111.392 68.5799 108.088C71.2119 106.128 74.4599 105.176 77.7639 105.4L71.8839 91.4556Z" fill="#68E1FD"/>
    <path opacity="0.33" d="M71.8842 91.4555L71.6042 91.2314C68.2442 94.7594 65.3322 98.6795 62.8682 102.879C60.9642 106.183 59.9002 109.655 58.9482 113.295C62.3082 111.895 65.5562 110.159 68.5802 108.143C71.2122 106.183 74.4602 105.231 77.7642 105.455L71.8842 91.4555Z" fill="#414044"/>
    <path d="M70.2403 85.1C72.5072 84.1886 73.3723 81.0306 72.1725 78.0463C70.9728 75.062 68.1625 73.3816 65.8956 74.293C63.6287 75.2043 62.7636 78.3624 63.9634 81.3466C65.1631 84.3309 67.9734 86.0113 70.2403 85.1Z" fill="#414044"/>
    <path d="M69.2579 83.6424C70.8361 83.0079 71.4328 80.7955 70.5907 78.7007C69.7485 76.606 67.7864 75.4222 66.2082 76.0567C64.63 76.6912 64.0333 78.9037 64.8754 80.9984C65.7175 83.0931 67.6796 84.2769 69.2579 83.6424Z" fill="#DDDDDD"/>
    <path d="M90.1955 57.7994L66.6195 42.9594C66.6195 42.9594 64.6035 42.3434 63.9315 43.9674C63.2595 45.5914 63.9315 46.2634 63.9315 46.2634L93.1075 63.8474C93.1075 63.8474 95.4595 63.3994 95.2355 60.5993L90.1955 57.7994Z" fill="#26262B"/>
    <path d="M103.804 31.7595C103.916 32.2075 102.124 41.2795 100.892 43.8555C99.6602 46.4315 92.7722 53.3195 91.8202 53.8235C90.8682 54.3275 87.5642 54.9995 87.1162 56.2315C86.6682 57.4635 85.8282 59.0875 87.1162 60.9355C88.4042 62.7835 90.8122 62.8395 91.3722 62.2235C91.9322 61.6075 91.5402 60.5995 92.1002 60.0955C92.6602 59.5915 94.3962 59.8155 95.5162 58.8635C95.7402 58.1915 96.0202 57.5195 96.3562 56.8475C96.7482 56.2875 100.78 54.3275 108.116 46.3755C108.116 46.3755 111.532 39.1515 112.26 32.7115L103.804 31.7595Z" fill="#FCD1C0"/>
    <path d="M71.1563 38.1995C70.3723 38.8715 69.5883 39.4875 68.6923 40.0475C67.7963 40.4955 64.4363 41.2235 63.9883 42.4555C63.5403 43.6875 62.7003 45.3115 63.9883 47.1595C65.2763 49.0075 67.6843 49.1195 68.2443 48.4475C68.8043 47.7755 68.4123 46.8235 68.9723 46.3755C69.5323 45.9275 71.2683 46.0955 72.3883 45.1435C72.6123 44.4715 72.8923 43.7995 73.2283 43.1275C73.3963 42.8475 74.2923 42.3435 75.8603 41.1675C74.1243 40.2155 72.7803 39.2635 71.1563 38.1995Z" fill="#FCD1C0"/>
    <path d="M73.5642 45.9834C71.9962 46.0954 70.6522 47.1034 70.0922 48.5594C69.0282 51.0794 69.7002 51.5834 70.7082 52.5354C71.7162 53.4874 82.3562 59.4234 82.3562 59.4234C82.3562 59.4234 84.2602 60.5434 86.0522 58.0794C87.8442 55.6154 86.7802 53.2634 85.6602 52.8154C84.5402 52.3674 73.5642 45.9834 73.5642 45.9834Z" fill="#68E1FD"/>
    <path opacity="0.33" d="M73.5642 45.9834C71.9962 46.0954 70.6522 47.1034 70.0922 48.5594C69.0282 51.0794 69.7002 51.5834 70.7082 52.5354C71.7162 53.4874 82.3562 59.4234 82.3562 59.4234C82.3562 59.4234 84.2602 60.5434 86.0522 58.0794C87.8442 55.6154 86.7802 53.2634 85.6602 52.8154C84.5402 52.3674 73.5642 45.9834 73.5642 45.9834Z" fill="#414044"/>
    <path d="M103.244 12.1035L104.308 15.9675C104.308 15.9675 103.244 17.3115 98.8762 17.1995L97.8682 13.1115L103.244 12.1035Z" fill="#F9B7AB"/>
    <path d="M93.8919 8.57546C93.5559 8.85546 94.5639 18.0395 98.0919 17.1995C101.62 16.3595 104.14 11.8235 104.308 10.8715C104.476 9.91946 100.164 3.75946 93.8919 8.57546Z" fill="#FCD1C0"/>
    <path d="M92.2678 6.05542C92.2678 6.05542 89.1878 10.3114 91.5958 11.5434C95.6278 13.5594 99.8278 11.3194 102.068 9.02342" fill="#68E1FD"/>
    <path d="M96.9722 0.231475C95.7402 0.455475 94.6202 0.959473 93.7242 1.79947C93.0522 2.41547 92.4922 3.19948 92.1562 4.09548C91.6522 5.32748 91.8202 6.50347 91.6522 7.84747C91.6522 7.84747 91.3722 9.86348 96.4122 10.2555C101.452 10.6475 100.164 11.2635 101.284 12.7195C102.404 14.1755 104.196 13.7275 105.428 12.1035C107.052 10.0315 107.668 7.28748 107.108 4.71148C106.492 2.07948 104.252 0.679475 101.732 0.231475C100.108 -0.104525 98.4842 -0.0485247 96.9722 0.231475Z" fill="#68E1FD"/>
    <path opacity="0.33" d="M96.9722 0.231475C95.7402 0.455475 94.6202 0.959473 93.7242 1.79947C93.0522 2.41547 92.4922 3.19948 92.1562 4.09548C91.6522 5.32748 91.8202 6.50347 91.6522 7.84747C91.6522 7.84747 91.3722 9.86348 96.4122 10.2555C101.452 10.6475 100.164 11.2635 101.284 12.7195C102.404 14.1755 104.196 13.7275 105.428 12.1035C107.052 10.0315 107.668 7.28748 107.108 4.71148C106.492 2.07948 104.252 0.679475 101.732 0.231475C100.108 -0.104525 98.4842 -0.0485247 96.9722 0.231475Z" fill="#414044"/>
    <path d="M131.681 28.3653L115.935 30.4695C115.726 30.4974 115.524 30.5693 115.342 30.6809C115.16 30.7926 115.001 30.9419 114.875 31.1203C114.748 31.2987 114.655 31.5027 114.603 31.7206C114.551 31.9386 114.539 32.1662 114.569 32.3905L116.823 49.2552C116.853 49.4795 116.924 49.6961 117.031 49.8926C117.139 50.0892 117.282 50.2618 117.451 50.4006C117.62 50.5394 117.813 50.6417 118.018 50.7017C118.223 50.7616 118.436 50.778 118.646 50.75L134.391 48.6458C134.6 48.6179 134.802 48.546 134.984 48.4344C135.166 48.3227 135.325 48.1734 135.452 47.995C135.579 47.8166 135.671 47.6126 135.723 47.3947C135.776 47.1767 135.787 46.9491 135.757 46.7248L133.503 29.8601C133.473 29.6358 133.402 29.4192 133.295 29.2227C133.187 29.0261 133.044 28.8535 132.875 28.7147C132.706 28.5759 132.513 28.4736 132.308 28.4136C132.103 28.3537 131.89 28.3373 131.681 28.3653Z" fill="#CCCCCC"/>
    <path d="M129.82 41.4501L122.593 43.9943C122.165 44.1447 121.695 44.1061 121.286 43.8869C120.878 43.6678 120.564 43.2861 120.415 42.8255L119.423 39.7587C119.275 39.2978 119.303 38.796 119.5 38.3635C119.698 37.931 120.05 37.6031 120.478 37.4518L127.705 34.9076C128.134 34.7572 128.604 34.7958 129.012 35.0149C129.42 35.234 129.734 35.6158 129.883 36.0764L130.875 39.1432C131.023 39.6041 130.996 40.1059 130.798 40.5383C130.6 40.9708 130.248 41.2987 129.82 41.4501Z" fill="#012F64"/>
    <path d="M127.836 37.9359L122.321 39.8775C122.271 39.895 122.218 39.9019 122.166 39.8976C122.113 39.8933 122.061 39.8779 122.014 39.8523C121.966 39.8268 121.923 39.7916 121.888 39.7487C121.853 39.7058 121.826 39.6561 121.809 39.6024C121.791 39.5487 121.784 39.492 121.787 39.4357C121.79 39.3793 121.804 39.3244 121.827 39.274C121.85 39.2236 121.882 39.1787 121.921 39.1419C121.961 39.1051 122.007 39.0771 122.057 39.0595L127.572 37.118C127.622 37.1004 127.675 37.0935 127.728 37.0978C127.781 37.1021 127.832 37.1175 127.88 37.1431C127.927 37.1686 127.97 37.2038 128.005 37.2467C128.04 37.2896 128.067 37.3393 128.085 37.393C128.102 37.4467 128.109 37.5034 128.106 37.5597C128.103 37.6161 128.09 37.671 128.067 37.7214C128.044 37.7718 128.012 37.8167 127.972 37.8535C127.932 37.8903 127.886 37.9183 127.836 37.9359Z" fill="white"/>
    <path d="M126.968 39.8356L124.115 40.8399C124.065 40.8575 124.012 40.8644 123.959 40.86C123.907 40.8557 123.855 40.8404 123.807 40.8148C123.76 40.7893 123.717 40.7541 123.682 40.7112C123.647 40.6683 123.62 40.6186 123.602 40.5649C123.585 40.5112 123.578 40.4545 123.581 40.3982C123.584 40.3418 123.597 40.2869 123.62 40.2365C123.643 40.1861 123.676 40.1412 123.715 40.1044C123.755 40.0676 123.801 40.0396 123.851 40.022L126.703 39.0177C126.753 39.0001 126.806 38.9932 126.859 38.9976C126.912 39.0019 126.964 39.0172 127.011 39.0428C127.059 39.0683 127.101 39.1035 127.136 39.1464C127.172 39.1893 127.199 39.239 127.216 39.2927C127.233 39.3464 127.241 39.4031 127.238 39.4594C127.235 39.5158 127.221 39.5707 127.198 39.6211C127.175 39.6715 127.143 39.7164 127.103 39.7532C127.064 39.79 127.018 39.818 126.968 39.8356Z" fill="white"/>
    <path d="M133.503 29.8601L133.803 32.1016L114.869 34.632L114.569 32.3905C114.539 32.1662 114.551 31.9386 114.603 31.7206C114.655 31.5027 114.748 31.2987 114.875 31.1203C115.001 30.9419 115.16 30.7926 115.342 30.6809C115.524 30.5693 115.726 30.4974 115.935 30.4695L131.681 28.3653C131.89 28.3373 132.103 28.3537 132.308 28.4136C132.513 28.4736 132.706 28.5759 132.875 28.7147C133.044 28.8535 133.187 29.0261 133.295 29.2227C133.402 29.4192 133.473 29.6358 133.503 29.8601Z" fill="#B3B3B3"/>
</svg>
