<svg width="100" height="100" viewBox="0 0 100 100" fill="none" xmlns="http://www.w3.org/2000/svg">
    <path d="M34.069 13.6685C26.2038 15.7112 19.1767 21.5786 15.4119 28.8238C11.099 37.1231 10.8594 47.4861 14.7816 55.9819C22.0212 71.6661 41.1624 78.4603 57.448 69.5962C61.1735 75.7429 65.828 81.5546 70.4185 86.6546C72.6843 89.173 76.7797 90.8574 80.0456 89.54C82.8324 88.9222 84.8193 86.4914 84.8193 83.5837C84.8193 82.1132 84.2983 80.6921 83.3546 79.5824C78.0427 73.3551 72.9206 66.9666 67.9955 60.4257C70.3202 57.2597 72.0146 53.6637 72.8317 49.8019C80.4044 26.7366 57.0917 4.63147 34.069 13.6685ZM81.9551 80.7897C84.431 83.6962 82.1419 88.1634 78.3672 87.8248C77.7581 87.772 77.1678 87.5863 76.6373 87.2807C76.1068 86.9751 75.6488 86.5569 75.2954 86.0552C70.7801 79.6358 66.0748 73.3537 61.1858 67.2174C63.2688 65.6897 65.1612 63.9151 66.822 61.9321C71.6792 68.3676 76.7257 74.6563 81.9551 80.7897ZM72.049 45.2976C70.2121 56.6863 60.6599 66.2931 49.3372 68.1405C37.5782 70.0633 24.7687 63.4323 19.8402 52.051C13.4287 36.3508 21.2938 18.0703 38.9003 14.1085C57.1998 9.98969 75.1749 25.9124 72.049 45.2976Z" fill="white"/>
    <path d="M77.0087 82.6053C77.1578 82.7045 77.3326 82.7574 77.5113 82.7573C78.4255 82.7573 78.7818 81.5574 78.0163 81.0545C77.3296 80.6003 76.8038 79.9388 76.5148 79.165C76.4296 78.9346 76.2568 78.7477 76.0346 78.6453C75.8123 78.543 75.5588 78.5337 75.3297 78.6194C75.1006 78.7051 74.9147 78.8788 74.813 79.1023C74.7113 79.3259 74.702 79.5809 74.7872 79.8113C75.2152 80.9555 75.993 81.9338 77.0087 82.6053ZM49.1301 19.5535C49.0147 19.511 48.892 19.4922 48.7693 19.498C48.6466 19.5039 48.5263 19.5344 48.4154 19.5878C48.3046 19.6411 48.2055 19.7162 48.1239 19.8086C48.0424 19.901 47.98 20.0089 47.9405 20.1259C47.901 20.2429 47.8852 20.3667 47.894 20.4899C47.9027 20.6132 47.9359 20.7334 47.9916 20.8436C48.0472 20.9538 48.1242 21.0516 48.218 21.1314C48.3118 21.2112 48.4206 21.2714 48.5378 21.3083C56.6339 24.0702 62.7247 32.3114 63.0196 40.9048C63.0282 41.1449 63.1291 41.3723 63.3009 41.5392C63.4728 41.706 63.7023 41.7994 63.9412 41.7995H63.9731C64.2174 41.7905 64.4481 41.6845 64.6148 41.5048C64.7816 41.3251 64.8707 41.0863 64.8627 40.8406C64.5347 31.3562 58.0666 22.6009 49.1301 19.5535ZM63.2838 43.8052L63.1351 43.9547C63.0467 44.0396 62.976 44.1414 62.9271 44.254C62.8782 44.3667 62.852 44.4881 62.8502 44.611C62.8484 44.7339 62.8709 44.856 62.9164 44.9701C62.9619 45.0842 63.0296 45.1881 63.1154 45.2756C63.2012 45.3632 63.3035 45.4327 63.4163 45.4801C63.5291 45.5275 63.6502 45.5518 63.7724 45.5517C63.8947 45.5516 64.0157 45.527 64.1284 45.4794C64.2411 45.4318 64.3433 45.3622 64.429 45.2745L64.6661 45.036L64.0149 44.381L63.2838 43.8052ZM73.4368 10.0506C73.3223 10.0109 73.2012 9.99427 73.0803 10.0017C72.9595 10.0092 72.8413 10.0406 72.7325 10.0941C72.6237 10.1476 72.5265 10.2221 72.4464 10.3135C72.3663 10.4048 72.305 10.5112 72.2658 10.6264L69.457 18.8726C69.3944 19.1007 69.4207 19.3442 69.5305 19.5535C69.6403 19.7628 69.8254 19.9221 70.0479 19.9988C70.2705 20.0756 70.5138 20.0641 70.7282 19.9666C70.9426 19.8692 71.112 19.6931 71.2018 19.4744L74.0094 11.2282C74.0885 10.9957 74.0726 10.7411 73.9652 10.5203C73.8579 10.2996 73.6679 10.1306 73.4368 10.0506ZM74.1483 23.6228C74.281 23.6233 74.4122 23.5946 74.5328 23.5388C77.1476 22.3296 79.6452 20.8792 81.9937 19.2063C82.1933 19.0642 82.3286 18.8482 82.3699 18.6058C82.4111 18.3634 82.3549 18.1144 82.2136 17.9137C82.0724 17.7129 81.8576 17.5768 81.6166 17.5354C81.3755 17.4939 81.128 17.5504 80.9284 17.6925C78.673 19.2996 76.2741 20.6925 73.7624 21.8532C72.8691 22.2672 73.1604 23.6228 74.1483 23.6228ZM86.4405 29.6669C82.9902 28.6628 79.386 28.3043 75.807 28.6091C75.6864 28.6191 75.5689 28.6529 75.4613 28.7086C75.3537 28.7644 75.2581 28.841 75.18 28.934C75.102 29.027 75.0429 29.1346 75.0063 29.2506C74.9696 29.3666 74.9561 29.4888 74.9666 29.6101C75.0084 30.1204 75.4581 30.5122 75.9619 30.4553C81.7013 29.9684 85.8151 31.4835 86.1849 31.4835C86.4065 31.4829 86.6205 31.402 86.7876 31.2556C86.9548 31.1092 87.0639 30.9072 87.0949 30.6865C87.126 30.4658 87.0769 30.2413 86.9567 30.054C86.8365 29.8667 86.6532 29.7293 86.4405 29.6669Z" fill="white"/>
</svg>
