<svg width="18" height="18" viewBox="0 0 18 18" fill="none" xmlns="http://www.w3.org/2000/svg">
    <path d="M17.4498 16.7423L13.5433 12.8363C14.7446 11.4743 15.4062 9.7199 15.4033 7.90381C15.4033 5.90031 14.6233 4.01681 13.2068 2.60031C11.7903 1.18381 9.90682 0.403809 7.90382 0.403809C5.90082 0.403809 4.01682 1.18381 2.59982 2.59981C1.18282 4.01581 0.40332 5.89981 0.40332 7.90331C0.40332 9.90681 1.18332 11.7898 2.59982 13.2063C4.01632 14.6228 5.89982 15.4033 7.90332 15.4033C9.73832 15.4033 11.4683 14.7418 12.8358 13.5428L16.7418 17.4488C16.7881 17.4954 16.8432 17.5324 16.9039 17.5576C16.9646 17.5828 17.0296 17.5958 17.0953 17.5958C17.161 17.5958 17.2261 17.5828 17.2867 17.5576C17.3474 17.5324 17.4025 17.4954 17.4488 17.4488C17.5426 17.355 17.5952 17.2279 17.5952 17.0953C17.5952 16.9627 17.5426 16.8356 17.4488 16.7418L17.4498 16.7423ZM3.30682 12.4998C2.07932 11.2718 1.40332 9.63981 1.40332 7.90381C1.40332 6.16781 2.07932 4.53531 3.30682 3.30731C4.53482 2.07981 6.16682 1.40381 7.90332 1.40381C9.63982 1.40381 11.2718 2.07981 12.4998 3.30731C13.7273 4.53531 14.4038 6.16731 14.4038 7.90381C14.4038 9.64031 13.7273 11.2718 12.4998 12.4998C11.2718 13.7273 9.63982 14.4038 7.90382 14.4038C6.16782 14.4038 4.53432 13.7273 3.30682 12.4998Z" fill="black"/>
</svg>
