<svg width="24" height="24" viewBox="0 0 24 24" fill="none" xmlns="http://www.w3.org/2000/svg">
    <path fill-rule="evenodd" clip-rule="evenodd" d="M22.7358 3.29722C22.7705 3.06446 22.7402 2.82663 22.6481 2.61006C22.556 2.3935 22.4058 2.20664 22.214 2.07019C22.0223 1.93374 21.7965 1.85301 21.5617 1.83696C21.327 1.8209 21.0923 1.87014 20.8838 1.97922L1.93178 11.9292C1.71067 12.0443 1.52825 12.2218 1.40718 12.4397C1.28611 12.6576 1.23173 12.9063 1.2508 13.1548C1.26987 13.4034 1.36154 13.6408 1.51444 13.8377C1.66733 14.0346 1.8747 14.1822 2.11078 14.2622L7.99978 16.2812L18.9998 6.00022L10.0978 17.0002L18.6938 19.9472C18.8703 20.0074 19.0579 20.0282 19.2433 20.008C19.4287 19.9879 19.6075 19.9274 19.767 19.8307C19.9265 19.734 20.0628 19.6036 20.1665 19.4485C20.2701 19.2935 20.3385 19.1176 20.3668 18.9332L22.7358 3.29722ZM8.83178 17.6232V20.8932C8.83189 21.1387 8.90293 21.379 9.03636 21.5851C9.16979 21.7911 9.35993 21.9543 9.58389 22.0549C9.80786 22.1554 10.0561 22.1891 10.2988 22.152C10.5415 22.1148 10.7682 22.0082 10.9518 21.8452L13.7898 19.3232L8.83178 17.6232Z" fill="#333333"/>
</svg>
