<svg width="24" height="24" viewBox="0 0 24 24" fill="none" xmlns="http://www.w3.org/2000/svg">
    <g clip-path="url(#clip0_103_1046)">
        <path d="M22.3148 10.464C22.2294 7.85532 21.1515 5.37761 19.3013 3.53662C17.3502 1.58512 14.7571 0.510742 12.0001 0.510742C6.43171 0.510742 1.88184 4.94287 1.68571 10.464C1.25635 10.6542 0.891364 10.9648 0.634978 11.3582C0.378592 11.7517 0.241811 12.211 0.241211 12.6806V15.4039C0.241906 16.0469 0.497672 16.6635 0.952391 17.1182C1.40711 17.5729 2.02364 17.8287 2.66671 17.8294C3.08278 17.8289 3.48167 17.6634 3.77588 17.3692C4.07009 17.075 4.23559 16.6761 4.23609 16.26V11.8241C4.23609 11.0115 3.61284 10.3489 2.82046 10.2701C3.11296 5.45999 7.11721 1.63574 12.0001 1.63574C14.4571 1.63574 16.7675 2.59349 18.5063 4.33237C20.1031 5.92912 21.0376 8.01037 21.1782 10.2705C20.3866 10.35 19.7645 11.0122 19.7645 11.8241V16.2596C19.7645 17.079 20.3975 17.7457 21.1992 17.8151V18.936C21.1985 19.5429 20.9571 20.1248 20.5279 20.5539C20.0987 20.9831 19.5168 21.2244 18.9098 21.225H17.2145C17.1002 20.8918 16.8844 20.6027 16.5974 20.3984C16.3104 20.194 15.9666 20.0847 15.6143 20.0857H13.8668C13.616 20.0857 13.3752 20.139 13.1547 20.2417C12.8595 20.3781 12.6094 20.5962 12.434 20.87C12.2585 21.1439 12.1651 21.4623 12.1647 21.7875C12.1647 22.2427 12.3421 22.6702 12.6635 22.9901C12.821 23.1489 13.0085 23.2748 13.215 23.3606C13.4216 23.4463 13.6432 23.4902 13.8668 23.4896H15.6143C16.3388 23.4896 16.9775 23.0212 17.2156 22.35H18.9098C20.7927 22.35 22.3242 20.8185 22.3242 18.936V17.6149C22.751 17.4236 23.1135 17.1131 23.368 16.7207C23.6226 16.3284 23.7583 15.8708 23.759 15.4031V12.6799C23.759 11.6921 23.1642 10.8416 22.3148 10.464ZM3.11071 11.8241V16.2596C3.11071 16.5045 2.91159 16.704 2.66634 16.704C2.32154 16.7036 1.99099 16.5665 1.74718 16.3226C1.50338 16.0788 1.36623 15.7483 1.36584 15.4035V12.6802C1.36623 12.3355 1.50338 12.0049 1.74718 11.7611C1.99099 11.5173 2.32154 11.3801 2.66634 11.3797C2.91159 11.3797 3.11071 11.5792 3.11071 11.8241ZM16.1787 21.9082C16.1508 22.0374 16.0795 22.1531 15.9768 22.2362C15.8741 22.3194 15.7461 22.3649 15.614 22.3654H13.8665C13.7127 22.3654 13.5683 22.3054 13.4581 22.1951C13.4044 22.1418 13.3619 22.0784 13.3329 22.0086C13.3039 21.9388 13.2891 21.8639 13.2893 21.7882C13.2897 21.6353 13.3507 21.4888 13.4588 21.3807C13.567 21.2726 13.7136 21.2118 13.8665 21.2115H15.614C15.7677 21.2115 15.9121 21.2711 16.022 21.3814C16.1307 21.4897 16.1907 21.6345 16.1907 21.7882C16.1911 21.8295 16.1866 21.8707 16.1787 21.9082ZM22.634 15.4035C22.6336 15.7483 22.4964 16.0788 22.2526 16.3226C22.0088 16.5665 21.6783 16.7036 21.3335 16.704C21.2156 16.7039 21.1027 16.657 21.0194 16.5737C20.936 16.4904 20.8892 16.3774 20.8891 16.2596V11.8241C20.8891 11.5792 21.0882 11.3797 21.3335 11.3797C21.6783 11.3801 22.0088 11.5173 22.2526 11.7611C22.4964 12.0049 22.6336 12.3355 22.634 12.6802V15.4035Z" fill="#333333"/>
        <path d="M15.6429 15.5973C16.2748 15.5966 16.8806 15.3452 17.3275 14.8984C17.7743 14.4515 18.0257 13.8457 18.0264 13.2138V8.35713C18.0264 7.72188 17.7781 7.12338 17.3274 6.67263C16.8766 6.22188 16.2785 5.97363 15.6429 5.97363H8.35811C7.72618 5.97433 7.12033 6.22567 6.67349 6.67251C6.22665 7.11935 5.9753 7.7252 5.97461 8.35713V13.2138C5.9753 13.8457 6.22665 14.4515 6.67349 14.8984C7.12033 15.3452 7.72618 15.5966 8.35811 15.5973H8.40273V16.8558C8.40199 17.0094 8.43164 17.1617 8.48997 17.3039C8.5483 17.4461 8.63416 17.5753 8.74261 17.6842C8.85107 17.7931 8.97998 17.8794 9.12192 17.9383C9.26387 17.9972 9.41606 18.0274 9.56973 18.0273C9.72331 18.0276 9.87537 17.9969 10.0168 17.9372C10.1583 17.8775 10.2863 17.7899 10.3932 17.6796L12.4869 15.5973H15.6429ZM11.8587 14.6358L9.59298 16.8891C9.58286 16.8996 9.57536 16.9075 9.55398 16.8981C9.52811 16.8876 9.52811 16.8708 9.52811 16.8558V15.0348C9.52811 14.8856 9.46885 14.7425 9.36336 14.637C9.25787 14.5315 9.11479 14.4723 8.96561 14.4723H8.35848C8.02483 14.4719 7.70496 14.3391 7.46903 14.1032C7.2331 13.8673 7.10038 13.5474 7.09998 13.2138V8.35713C7.10038 8.02348 7.2331 7.70361 7.46903 7.46768C7.70496 7.23175 8.02483 7.09903 8.35848 7.09863H15.6432C15.9785 7.09863 16.2939 7.22988 16.5324 7.46801C16.7709 7.70651 16.9017 8.02226 16.9017 8.35713V13.2138C16.9013 13.5474 16.7686 13.8673 16.5327 14.1032C16.2968 14.3391 15.9769 14.4719 15.6432 14.4723H12.2555C12.1066 14.4723 11.9641 14.5311 11.8587 14.6358Z" fill="#333333"/>
        <path d="M9.26737 10.0459C8.80987 10.0459 8.4375 10.4186 8.4375 10.8758C8.4375 11.3329 8.81025 11.7056 9.26737 11.7056C9.72525 11.7056 10.098 11.3329 10.098 10.8758C10.098 10.4186 9.72562 10.0459 9.26737 10.0459ZM11.9996 10.0459C11.5421 10.0459 11.1697 10.4186 11.1697 10.8758C11.1697 11.3329 11.5425 11.7056 11.9996 11.7056C12.4579 11.7056 12.8303 11.3329 12.8303 10.8758C12.8303 10.4186 12.4579 10.0459 11.9996 10.0459ZM14.7319 10.0459C14.2744 10.0459 13.902 10.4186 13.902 10.8758C13.902 11.3329 14.2747 11.7056 14.7319 11.7056C15.1897 11.7056 15.5625 11.3329 15.5625 10.8758C15.5625 10.4186 15.1897 10.0459 14.7319 10.0459Z" fill="#333333"/>
    </g>
    <defs>
        <clipPath id="clip0_103_1046">
            <rect width="24" height="24" fill="white"/>
        </clipPath>
    </defs>
</svg>
